<?xml version="1.0" encoding="UTF-8" standalone="no"?>
<!DOCTYPE svg PUBLIC "-//W3C//DTD SVG 1.1//EN"
 "http://www.w3.org/Graphics/SVG/1.1/DTD/svg11.dtd">
<!-- Generated by graphviz version 2.43.0 (0)
 -->
<!-- Title: Cognitive_Architecture_Layers Pages: 1 -->
<svg width="1073pt" height="1046pt"
 viewBox="0.00 0.00 1073.00 1046.00" xmlns="http://www.w3.org/2000/svg" xmlns:xlink="http://www.w3.org/1999/xlink">
<g id="graph0" class="graph" transform="scale(1 1) rotate(0) translate(4 1042)">
<title>Cognitive_Architecture_Layers</title>
<polygon fill="#0d1117" stroke="transparent" points="-4,4 -4,-1042 1069,-1042 1069,4 -4,4"/>
<text text-anchor="start" x="82" y="-1019" font-family="Helvetica,sans-Serif" font-weight="bold" font-size="20.00" fill="white">COGNITIVE ARCHITECTURE: THE INTUITIVE MATHEMATICIAN WHO CAN PROVE IT</text>
<!-- intuition_core -->
<g id="node1" class="node">
<title>intuition_core</title>
<ellipse fill="#ff6b9d" stroke="black" stroke-width="2.5" cx="558" cy="-887" rx="101.63" ry="43"/>
<text text-anchor="start" x="500.5" y="-895.7" font-family="Helvetica,sans-Serif" font-weight="bold" font-size="11.00">INTUITIVE INSIGHT</text>
<text text-anchor="start" x="518.5" y="-884.7" font-family="Helvetica,sans-Serif" font-size="11.00">Flash of vision</text>
<text text-anchor="start" x="476.5" y="-873.7" font-family="Helvetica,sans-Serif" font-size="11.00">System&#45;shape appears whole</text>
</g>
<!-- int_1 -->
<g id="node2" class="node">
<title>int_1</title>
<path fill="#ff8fb3" stroke="black" stroke-width="2.5" d="M839,-905C839,-905 795,-905 795,-905 789,-905 783,-899 783,-893 783,-893 783,-881 783,-881 783,-875 789,-869 795,-869 795,-869 839,-869 839,-869 845,-869 851,-875 851,-881 851,-881 851,-893 851,-893 851,-899 845,-905 839,-905"/>
<text text-anchor="middle" x="817" y="-890.2" font-family="Helvetica,sans-Serif" font-size="11.00">Topology</text>
<text text-anchor="middle" x="817" y="-878.2" font-family="Helvetica,sans-Serif" font-size="11.00">Causality</text>
</g>
<!-- intuition_core&#45;&gt;int_1 -->
<g id="edge1" class="edge">
<title>intuition_core&#45;&gt;int_1</title>
<path fill="none" stroke="#ff6b9d" stroke-width="2" d="M619.54,-921.27C642.5,-932.25 669.25,-942.99 695,-948.5 725.42,-955.01 736.78,-961.6 765,-948.5 780.56,-941.28 793.15,-926.85 802.04,-913.79"/>
<polygon fill="#ff6b9d" stroke="#ff6b9d" stroke-width="2" points="805.18,-915.38 807.6,-905.07 799.27,-911.62 805.18,-915.38"/>
</g>
<!-- int_2 -->
<g id="node3" class="node">
<title>int_2</title>
<path fill="#ff8fb3" stroke="black" stroke-width="2.5" d="M753,-905C753,-905 707,-905 707,-905 701,-905 695,-899 695,-893 695,-893 695,-881 695,-881 695,-875 701,-869 707,-869 707,-869 753,-869 753,-869 759,-869 765,-875 765,-881 765,-881 765,-893 765,-893 765,-899 759,-905 753,-905"/>
<text text-anchor="middle" x="730" y="-890.2" font-family="Helvetica,sans-Serif" font-size="11.00">Emergent</text>
<text text-anchor="middle" x="730" y="-878.2" font-family="Helvetica,sans-Serif" font-size="11.00">Behavior</text>
</g>
<!-- intuition_core&#45;&gt;int_2 -->
<g id="edge2" class="edge">
<title>intuition_core&#45;&gt;int_2</title>
<path fill="none" stroke="#ff6b9d" stroke-width="2" d="M660.12,-887C668.34,-887 676.55,-887 684.77,-887"/>
<polygon fill="#ff6b9d" stroke="#ff6b9d" stroke-width="2" points="684.79,-890.5 694.79,-887 684.79,-883.5 684.79,-890.5"/>
</g>
<!-- int_3 -->
<g id="node4" class="node">
<title>int_3</title>
<path fill="#ff8fb3" stroke="black" stroke-width="2.5" d="M1053,-905C1053,-905 995,-905 995,-905 989,-905 983,-899 983,-893 983,-893 983,-881 983,-881 983,-875 989,-869 995,-869 995,-869 1053,-869 1053,-869 1059,-869 1065,-875 1065,-881 1065,-881 1065,-893 1065,-893 1065,-899 1059,-905 1053,-905"/>
<text text-anchor="middle" x="1024" y="-890.2" font-family="Helvetica,sans-Serif" font-size="11.00">Multi&#45;layer</text>
<text text-anchor="middle" x="1024" y="-878.2" font-family="Helvetica,sans-Serif" font-size="11.00">Interactions</text>
</g>
<!-- intuition_core&#45;&gt;int_3 -->
<g id="edge3" class="edge">
<title>intuition_core&#45;&gt;int_3</title>
<path fill="none" stroke="#ff6b9d" stroke-width="2" d="M619.54,-921.27C642.5,-932.25 669.25,-942.99 695,-948.5 753.67,-961.06 909.81,-972.03 965,-948.5 981.86,-941.31 996.22,-926.68 1006.55,-913.49"/>
<polygon fill="#ff6b9d" stroke="#ff6b9d" stroke-width="2" points="1009.6,-915.25 1012.74,-905.13 1003.97,-911.08 1009.6,-915.25"/>
</g>
<!-- int_4 -->
<g id="node5" class="node">
<title>int_4</title>
<path fill="#ff8fb3" stroke="black" stroke-width="2.5" d="M953,-905C953,-905 881,-905 881,-905 875,-905 869,-899 869,-893 869,-893 869,-881 869,-881 869,-875 875,-869 881,-869 881,-869 953,-869 953,-869 959,-869 965,-875 965,-881 965,-881 965,-893 965,-893 965,-899 959,-905 953,-905"/>
<text text-anchor="middle" x="917" y="-890.2" font-family="Helvetica,sans-Serif" font-size="11.00">Architectural</text>
<text text-anchor="middle" x="917" y="-878.2" font-family="Helvetica,sans-Serif" font-size="11.00">Consequences</text>
</g>
<!-- intuition_core&#45;&gt;int_4 -->
<g id="edge4" class="edge">
<title>intuition_core&#45;&gt;int_4</title>
<path fill="none" stroke="#ff6b9d" stroke-width="2" d="M619.54,-921.27C642.5,-932.25 669.25,-942.99 695,-948.5 762.8,-963.02 786.49,-973.9 851,-948.5 869.22,-941.33 885.39,-926.49 897.16,-913.18"/>
<polygon fill="#ff6b9d" stroke="#ff6b9d" stroke-width="2" points="900.14,-915.08 903.9,-905.18 894.79,-910.57 900.14,-915.08"/>
</g>
<!-- pattern_core -->
<g id="node6" class="node">
<title>pattern_core</title>
<ellipse fill="#9d6bff" stroke="black" stroke-width="2.5" cx="206" cy="-750" rx="90" ry="43"/>
<text text-anchor="start" x="135" y="-758.7" font-family="Helvetica,sans-Serif" font-weight="bold" font-size="11.00">PATTERN RECOGNITION</text>
<text text-anchor="start" x="157" y="-747.7" font-family="Helvetica,sans-Serif" font-size="11.00">Domain expertise</text>
<text text-anchor="start" x="145.5" y="-736.7" font-family="Helvetica,sans-Serif" font-size="11.00">Architectural patterns</text>
</g>
<!-- intuition_core&#45;&gt;pattern_core -->
<g id="edge33" class="edge">
<title>intuition_core&#45;&gt;pattern_core</title>
<path fill="none" stroke="#ff6b9d" stroke-width="3" d="M483.78,-857.53C425.38,-835.14 344.21,-804.01 284.69,-781.18"/>
<polygon fill="#ff6b9d" stroke="#ff6b9d" stroke-width="3" points="285.92,-777.9 275.33,-777.59 283.42,-784.44 285.92,-777.9"/>
<text text-anchor="middle" x="454" y="-814.8" font-family="Times,serif" font-size="14.00" fill="#ff6b9d"> &#160;insight shapes &#160;</text>
</g>
<!-- pat_1 -->
<g id="node7" class="node">
<title>pat_1</title>
<path fill="#b38fff" stroke="black" stroke-width="2.5" d="M396.5,-768C396.5,-768 343.5,-768 343.5,-768 337.5,-768 331.5,-762 331.5,-756 331.5,-756 331.5,-744 331.5,-744 331.5,-738 337.5,-732 343.5,-732 343.5,-732 396.5,-732 396.5,-732 402.5,-732 408.5,-738 408.5,-744 408.5,-744 408.5,-756 408.5,-756 408.5,-762 402.5,-768 396.5,-768"/>
<text text-anchor="middle" x="370" y="-753.2" font-family="Helvetica,sans-Serif" font-size="11.00">Distributed</text>
<text text-anchor="middle" x="370" y="-741.2" font-family="Helvetica,sans-Serif" font-size="11.00">Systems</text>
</g>
<!-- pattern_core&#45;&gt;pat_1 -->
<g id="edge5" class="edge">
<title>pattern_core&#45;&gt;pat_1</title>
<path fill="none" stroke="#9d6bff" stroke-width="2" d="M296.01,-750C304.36,-750 312.72,-750 321.08,-750"/>
<polygon fill="#9d6bff" stroke="#9d6bff" stroke-width="2" points="321.27,-753.5 331.27,-750 321.27,-746.5 321.27,-753.5"/>
</g>
<!-- pat_2 -->
<g id="node8" class="node">
<title>pat_2</title>
<path fill="#b38fff" stroke="black" stroke-width="2.5" d="M835,-768C835,-768 767,-768 767,-768 761,-768 755,-762 755,-756 755,-756 755,-744 755,-744 755,-738 761,-732 767,-732 767,-732 835,-732 835,-732 841,-732 847,-738 847,-744 847,-744 847,-756 847,-756 847,-762 841,-768 835,-768"/>
<text text-anchor="middle" x="801" y="-753.2" font-family="Helvetica,sans-Serif" font-size="11.00">Multi&#45;agent</text>
<text text-anchor="middle" x="801" y="-741.2" font-family="Helvetica,sans-Serif" font-size="11.00">Orchestration</text>
</g>
<!-- pattern_core&#45;&gt;pat_2 -->
<g id="edge6" class="edge">
<title>pattern_core&#45;&gt;pat_2</title>
<path fill="none" stroke="#9d6bff" stroke-width="2" d="M257.07,-785.57C278.82,-798.64 305.11,-811.87 331,-818.5 418.4,-840.88 654.24,-854.44 737,-818.5 756.78,-809.91 773.22,-791.87 784.49,-776.46"/>
<polygon fill="#9d6bff" stroke="#9d6bff" stroke-width="2" points="787.37,-778.45 790.2,-768.24 781.62,-774.45 787.37,-778.45"/>
</g>
<!-- pat_3 -->
<g id="node9" class="node">
<title>pat_3</title>
<path fill="#b38fff" stroke="black" stroke-width="2.5" d="M725,-768C725,-768 659,-768 659,-768 653,-768 647,-762 647,-756 647,-756 647,-744 647,-744 647,-738 653,-732 659,-732 659,-732 725,-732 725,-732 731,-732 737,-738 737,-744 737,-744 737,-756 737,-756 737,-762 731,-768 725,-768"/>
<text text-anchor="middle" x="692" y="-753.2" font-family="Helvetica,sans-Serif" font-size="11.00">Observability</text>
<text text-anchor="middle" x="692" y="-741.2" font-family="Helvetica,sans-Serif" font-size="11.00">Patterns</text>
</g>
<!-- pattern_core&#45;&gt;pat_3 -->
<g id="edge7" class="edge">
<title>pattern_core&#45;&gt;pat_3</title>
<path fill="none" stroke="#9d6bff" stroke-width="2" d="M257.07,-785.57C278.82,-798.64 305.11,-811.87 331,-818.5 394.94,-834.87 567.46,-844.79 628,-818.5 647.78,-809.91 664.22,-791.87 675.49,-776.46"/>
<polygon fill="#9d6bff" stroke="#9d6bff" stroke-width="2" points="678.37,-778.45 681.2,-768.24 672.62,-774.45 678.37,-778.45"/>
</g>
<!-- pat_4 -->
<g id="node10" class="node">
<title>pat_4</title>
<path fill="#b38fff" stroke="black" stroke-width="2.5" d="M616.5,-768C616.5,-768 563.5,-768 563.5,-768 557.5,-768 551.5,-762 551.5,-756 551.5,-756 551.5,-744 551.5,-744 551.5,-738 557.5,-732 563.5,-732 563.5,-732 616.5,-732 616.5,-732 622.5,-732 628.5,-738 628.5,-744 628.5,-744 628.5,-756 628.5,-756 628.5,-762 622.5,-768 616.5,-768"/>
<text text-anchor="middle" x="590" y="-753.2" font-family="Helvetica,sans-Serif" font-size="11.00">Knowledge</text>
<text text-anchor="middle" x="590" y="-741.2" font-family="Helvetica,sans-Serif" font-size="11.00">Graphs</text>
</g>
<!-- pattern_core&#45;&gt;pat_4 -->
<g id="edge8" class="edge">
<title>pattern_core&#45;&gt;pat_4</title>
<path fill="none" stroke="#9d6bff" stroke-width="2" d="M257.07,-785.57C278.82,-798.64 305.11,-811.87 331,-818.5 417.97,-840.77 451.71,-856.61 533,-818.5 551.38,-809.88 565.9,-792.1 575.68,-776.81"/>
<polygon fill="#9d6bff" stroke="#9d6bff" stroke-width="2" points="578.72,-778.55 580.89,-768.18 572.72,-774.94 578.72,-778.55"/>
</g>
<!-- pat_5 -->
<g id="node11" class="node">
<title>pat_5</title>
<path fill="#b38fff" stroke="black" stroke-width="2.5" d="M521.5,-768C521.5,-768 438.5,-768 438.5,-768 432.5,-768 426.5,-762 426.5,-756 426.5,-756 426.5,-744 426.5,-744 426.5,-738 432.5,-732 438.5,-732 438.5,-732 521.5,-732 521.5,-732 527.5,-732 533.5,-738 533.5,-744 533.5,-744 533.5,-756 533.5,-756 533.5,-762 527.5,-768 521.5,-768"/>
<text text-anchor="middle" x="480" y="-753.2" font-family="Helvetica,sans-Serif" font-size="11.00">Recursive</text>
<text text-anchor="middle" x="480" y="-741.2" font-family="Helvetica,sans-Serif" font-size="11.00">AI Orchestration</text>
</g>
<!-- pattern_core&#45;&gt;pat_5 -->
<g id="edge9" class="edge">
<title>pattern_core&#45;&gt;pat_5</title>
<path fill="none" stroke="#9d6bff" stroke-width="2" d="M257.07,-785.57C278.82,-798.64 305.11,-811.87 331,-818.5 364.15,-826.99 376.22,-831.2 408,-818.5 429.22,-810.02 447.76,-791.97 460.71,-776.53"/>
<polygon fill="#9d6bff" stroke="#9d6bff" stroke-width="2" points="463.79,-778.29 467.31,-768.3 458.32,-773.91 463.79,-778.29"/>
</g>
<!-- arch_core -->
<g id="node12" class="node">
<title>arch_core</title>
<ellipse fill="#6b9dff" stroke="black" stroke-width="2.5" cx="101" cy="-613" rx="90" ry="43"/>
<text text-anchor="start" x="50" y="-621.7" font-family="Helvetica,sans-Serif" font-weight="bold" font-size="11.00">SYSTEM DESIGN</text>
<text text-anchor="start" x="60" y="-610.7" font-family="Helvetica,sans-Serif" font-size="11.00">Decomposition</text>
<text text-anchor="start" x="42.5" y="-599.7" font-family="Helvetica,sans-Serif" font-size="11.00">Component selection</text>
</g>
<!-- pattern_core&#45;&gt;arch_core -->
<g id="edge34" class="edge">
<title>pattern_core&#45;&gt;arch_core</title>
<path fill="none" stroke="#9d6bff" stroke-width="3" d="M175.06,-709.23C163.42,-694.26 150.07,-677.09 137.93,-661.49"/>
<polygon fill="#9d6bff" stroke="#9d6bff" stroke-width="3" points="140.62,-659.23 131.71,-653.49 135.09,-663.53 140.62,-659.23"/>
<text text-anchor="middle" x="225" y="-677.8" font-family="Times,serif" font-size="14.00" fill="#9d6bff"> &#160;pattern matches &#160;</text>
</g>
<!-- arch_1 -->
<g id="node13" class="node">
<title>arch_1</title>
<path fill="#8fb3ff" stroke="black" stroke-width="2.5" d="M741.5,-631C741.5,-631 686.5,-631 686.5,-631 680.5,-631 674.5,-625 674.5,-619 674.5,-619 674.5,-607 674.5,-607 674.5,-601 680.5,-595 686.5,-595 686.5,-595 741.5,-595 741.5,-595 747.5,-595 753.5,-601 753.5,-607 753.5,-607 753.5,-619 753.5,-619 753.5,-625 747.5,-631 741.5,-631"/>
<text text-anchor="middle" x="714" y="-616.2" font-family="Helvetica,sans-Serif" font-size="11.00">Kubernetes</text>
<text text-anchor="middle" x="714" y="-604.2" font-family="Helvetica,sans-Serif" font-size="11.00">Clusters</text>
</g>
<!-- arch_core&#45;&gt;arch_1 -->
<g id="edge10" class="edge">
<title>arch_core&#45;&gt;arch_1</title>
<path fill="none" stroke="#6b9dff" stroke-width="2" d="M152.21,-648.39C174.2,-661.52 200.82,-674.84 227,-681.5 319.39,-704.99 569.51,-721.6 656,-681.5 674.55,-672.9 689.33,-655.11 699.32,-639.82"/>
<polygon fill="#6b9dff" stroke="#6b9dff" stroke-width="2" points="702.37,-641.54 704.65,-631.19 696.42,-637.87 702.37,-641.54"/>
</g>
<!-- arch_2 -->
<g id="node14" class="node">
<title>arch_2</title>
<path fill="#8fb3ff" stroke="black" stroke-width="2.5" d="M644,-631C644,-631 578,-631 578,-631 572,-631 566,-625 566,-619 566,-619 566,-607 566,-607 566,-601 572,-595 578,-595 578,-595 644,-595 644,-595 650,-595 656,-601 656,-607 656,-607 656,-619 656,-619 656,-625 650,-631 644,-631"/>
<text text-anchor="middle" x="611" y="-616.2" font-family="Helvetica,sans-Serif" font-size="11.00">Observability</text>
<text text-anchor="middle" x="611" y="-604.2" font-family="Helvetica,sans-Serif" font-size="11.00">Pipelines</text>
</g>
<!-- arch_core&#45;&gt;arch_2 -->
<g id="edge11" class="edge">
<title>arch_core&#45;&gt;arch_2</title>
<path fill="none" stroke="#6b9dff" stroke-width="2" d="M152.21,-648.39C174.2,-661.52 200.82,-674.84 227,-681.5 295.92,-699.02 481.77,-709.82 547,-681.5 566.78,-672.91 583.22,-654.87 594.49,-639.46"/>
<polygon fill="#6b9dff" stroke="#6b9dff" stroke-width="2" points="597.37,-641.45 600.2,-631.24 591.62,-637.45 597.37,-641.45"/>
</g>
<!-- arch_3 -->
<g id="node15" class="node">
<title>arch_3</title>
<path fill="#8fb3ff" stroke="black" stroke-width="2.5" d="M535.5,-631C535.5,-631 462.5,-631 462.5,-631 456.5,-631 450.5,-625 450.5,-619 450.5,-619 450.5,-607 450.5,-607 450.5,-601 456.5,-595 462.5,-595 462.5,-595 535.5,-595 535.5,-595 541.5,-595 547.5,-601 547.5,-607 547.5,-607 547.5,-619 547.5,-619 547.5,-625 541.5,-631 535.5,-631"/>
<text text-anchor="middle" x="499" y="-616.2" font-family="Helvetica,sans-Serif" font-size="11.00">AI Governance</text>
<text text-anchor="middle" x="499" y="-604.2" font-family="Helvetica,sans-Serif" font-size="11.00">Models</text>
</g>
<!-- arch_core&#45;&gt;arch_3 -->
<g id="edge12" class="edge">
<title>arch_core&#45;&gt;arch_3</title>
<path fill="none" stroke="#6b9dff" stroke-width="2" d="M152.21,-648.39C174.2,-661.52 200.82,-674.84 227,-681.5 315.3,-703.95 348.02,-716.83 432,-681.5 452.31,-672.95 469.54,-654.91 481.44,-639.49"/>
<polygon fill="#6b9dff" stroke="#6b9dff" stroke-width="2" points="484.38,-641.39 487.49,-631.27 478.75,-637.25 484.38,-641.39"/>
</g>
<!-- arch_4 -->
<g id="node16" class="node">
<title>arch_4</title>
<path fill="#8fb3ff" stroke="black" stroke-width="2.5" d="M420.5,-631C420.5,-631 349.5,-631 349.5,-631 343.5,-631 337.5,-625 337.5,-619 337.5,-619 337.5,-607 337.5,-607 337.5,-601 343.5,-595 349.5,-595 349.5,-595 420.5,-595 420.5,-595 426.5,-595 432.5,-601 432.5,-607 432.5,-607 432.5,-619 432.5,-619 432.5,-625 426.5,-631 420.5,-631"/>
<text text-anchor="middle" x="385" y="-616.2" font-family="Helvetica,sans-Serif" font-size="11.00">Multi&#45;agent</text>
<text text-anchor="middle" x="385" y="-604.2" font-family="Helvetica,sans-Serif" font-size="11.00">Constellations</text>
</g>
<!-- arch_core&#45;&gt;arch_4 -->
<g id="edge13" class="edge">
<title>arch_core&#45;&gt;arch_4</title>
<path fill="none" stroke="#6b9dff" stroke-width="2" d="M152.21,-648.39C174.2,-661.52 200.82,-674.84 227,-681.5 266.63,-691.58 281.37,-697.5 319,-681.5 339.13,-672.94 356.1,-654.9 367.79,-639.48"/>
<polygon fill="#6b9dff" stroke="#6b9dff" stroke-width="2" points="370.71,-641.41 373.73,-631.26 365.04,-637.32 370.71,-641.41"/>
</g>
<!-- arch_5 -->
<g id="node17" class="node">
<title>arch_5</title>
<path fill="#8fb3ff" stroke="black" stroke-width="2.5" d="M307,-631C307,-631 239,-631 239,-631 233,-631 227,-625 227,-619 227,-619 227,-607 227,-607 227,-601 233,-595 239,-595 239,-595 307,-595 307,-595 313,-595 319,-601 319,-607 319,-607 319,-619 319,-619 319,-625 313,-631 307,-631"/>
<text text-anchor="middle" x="273" y="-616.2" font-family="Helvetica,sans-Serif" font-size="11.00">Sovereign</text>
<text text-anchor="middle" x="273" y="-604.2" font-family="Helvetica,sans-Serif" font-size="11.00">Infrastructure</text>
</g>
<!-- arch_core&#45;&gt;arch_5 -->
<g id="edge14" class="edge">
<title>arch_core&#45;&gt;arch_5</title>
<path fill="none" stroke="#6b9dff" stroke-width="2" d="M191.03,-613C199.62,-613 208.21,-613 216.81,-613"/>
<polygon fill="#6b9dff" stroke="#6b9dff" stroke-width="2" points="216.89,-616.5 226.89,-613 216.89,-609.5 216.89,-616.5"/>
</g>
<!-- trans_core -->
<g id="node18" class="node">
<title>trans_core</title>
<ellipse fill="#6bffc4" stroke="black" stroke-width="2.5" cx="101" cy="-476" rx="90" ry="43"/>
<text text-anchor="start" x="48.5" y="-484.7" font-family="Helvetica,sans-Serif" font-weight="bold" font-size="11.00">AI TRANSLATORS</text>
<text text-anchor="start" x="56" y="-473.7" font-family="Helvetica,sans-Serif" font-size="11.00">Spec generation</text>
<text text-anchor="start" x="58.5" y="-462.7" font-family="Helvetica,sans-Serif" font-size="11.00">Code synthesis</text>
</g>
<!-- arch_core&#45;&gt;trans_core -->
<g id="edge35" class="edge">
<title>arch_core&#45;&gt;trans_core</title>
<path fill="none" stroke="#6b9dff" stroke-width="3" d="M101,-569.66C101,-556.84 101,-542.61 101,-529.23"/>
<polygon fill="#6b9dff" stroke="#6b9dff" stroke-width="3" points="104.5,-529.19 101,-519.19 97.5,-529.19 104.5,-529.19"/>
<text text-anchor="middle" x="156" y="-540.8" font-family="Times,serif" font-size="14.00" fill="#6b9dff"> &#160;design specs &#160;</text>
</g>
<!-- trans_1 -->
<g id="node19" class="node">
<title>trans_1</title>
<path fill="#8fffd4" stroke="black" stroke-width="2.5" d="M370.5,-494C370.5,-494 325.5,-494 325.5,-494 319.5,-494 313.5,-488 313.5,-482 313.5,-482 313.5,-470 313.5,-470 313.5,-464 319.5,-458 325.5,-458 325.5,-458 370.5,-458 370.5,-458 376.5,-458 382.5,-464 382.5,-470 382.5,-470 382.5,-482 382.5,-482 382.5,-488 376.5,-494 370.5,-494"/>
<text text-anchor="middle" x="348" y="-479.2" font-family="Helvetica,sans-Serif" font-size="11.00">Claude</text>
<text text-anchor="middle" x="348" y="-467.2" font-family="Helvetica,sans-Serif" font-size="11.00">(Hardy 1)</text>
</g>
<!-- trans_core&#45;&gt;trans_1 -->
<g id="edge15" class="edge">
<title>trans_core&#45;&gt;trans_1</title>
<path fill="none" stroke="#6bffc4" stroke-width="2" d="M152.07,-511.57C173.82,-524.64 200.11,-537.87 226,-544.5 255.71,-552.11 267.47,-558.01 295,-544.5 312.55,-535.89 325.95,-518.36 334.88,-503.18"/>
<polygon fill="#6bffc4" stroke="#6bffc4" stroke-width="2" points="338.1,-504.59 339.86,-494.14 331.97,-501.21 338.1,-504.59"/>
</g>
<!-- trans_2 -->
<g id="node20" class="node">
<title>trans_2</title>
<path fill="#8fffd4" stroke="black" stroke-width="2.5" d="M283.5,-494C283.5,-494 238.5,-494 238.5,-494 232.5,-494 226.5,-488 226.5,-482 226.5,-482 226.5,-470 226.5,-470 226.5,-464 232.5,-458 238.5,-458 238.5,-458 283.5,-458 283.5,-458 289.5,-458 295.5,-464 295.5,-470 295.5,-470 295.5,-482 295.5,-482 295.5,-488 289.5,-494 283.5,-494"/>
<text text-anchor="middle" x="261" y="-479.2" font-family="Helvetica,sans-Serif" font-size="11.00">Grok</text>
<text text-anchor="middle" x="261" y="-467.2" font-family="Helvetica,sans-Serif" font-size="11.00">(Hardy 2)</text>
</g>
<!-- trans_core&#45;&gt;trans_2 -->
<g id="edge16" class="edge">
<title>trans_core&#45;&gt;trans_2</title>
<path fill="none" stroke="#6bffc4" stroke-width="2" d="M191,-476C199.36,-476 207.72,-476 216.08,-476"/>
<polygon fill="#6bffc4" stroke="#6bffc4" stroke-width="2" points="216.27,-479.5 226.27,-476 216.27,-472.5 216.27,-479.5"/>
</g>
<!-- trans_3 -->
<g id="node21" class="node">
<title>trans_3</title>
<path fill="#8fffd4" stroke="black" stroke-width="2.5" d="M534.5,-494C534.5,-494 489.5,-494 489.5,-494 483.5,-494 477.5,-488 477.5,-482 477.5,-482 477.5,-470 477.5,-470 477.5,-464 483.5,-458 489.5,-458 489.5,-458 534.5,-458 534.5,-458 540.5,-458 546.5,-464 546.5,-470 546.5,-470 546.5,-482 546.5,-482 546.5,-488 540.5,-494 534.5,-494"/>
<text text-anchor="middle" x="512" y="-479.2" font-family="Helvetica,sans-Serif" font-size="11.00">GPT</text>
<text text-anchor="middle" x="512" y="-467.2" font-family="Helvetica,sans-Serif" font-size="11.00">(Hardy 3)</text>
</g>
<!-- trans_core&#45;&gt;trans_3 -->
<g id="edge17" class="edge">
<title>trans_core&#45;&gt;trans_3</title>
<path fill="none" stroke="#6bffc4" stroke-width="2" d="M152.07,-511.57C173.82,-524.64 200.11,-537.87 226,-544.5 276.16,-557.34 412.52,-567.31 459,-544.5 476.55,-535.89 489.95,-518.36 498.88,-503.18"/>
<polygon fill="#6bffc4" stroke="#6bffc4" stroke-width="2" points="502.1,-504.59 503.86,-494.14 495.97,-501.21 502.1,-504.59"/>
</g>
<!-- trans_4 -->
<g id="node22" class="node">
<title>trans_4</title>
<path fill="#8fffd4" stroke="black" stroke-width="2.5" d="M447.5,-494C447.5,-494 412.5,-494 412.5,-494 406.5,-494 400.5,-488 400.5,-482 400.5,-482 400.5,-470 400.5,-470 400.5,-464 406.5,-458 412.5,-458 412.5,-458 447.5,-458 447.5,-458 453.5,-458 459.5,-464 459.5,-470 459.5,-470 459.5,-482 459.5,-482 459.5,-488 453.5,-494 447.5,-494"/>
<text text-anchor="middle" x="430" y="-479.2" font-family="Helvetica,sans-Serif" font-size="11.00">Custom</text>
<text text-anchor="middle" x="430" y="-467.2" font-family="Helvetica,sans-Serif" font-size="11.00">Agents</text>
</g>
<!-- trans_core&#45;&gt;trans_4 -->
<g id="edge18" class="edge">
<title>trans_core&#45;&gt;trans_4</title>
<path fill="none" stroke="#6bffc4" stroke-width="2" d="M152.07,-511.57C173.82,-524.64 200.11,-537.87 226,-544.5 293.17,-561.7 320.49,-576.5 382,-544.5 398.75,-535.79 410.87,-518.25 418.74,-503.11"/>
<polygon fill="#6bffc4" stroke="#6bffc4" stroke-width="2" points="421.9,-504.62 423.09,-494.09 415.59,-501.57 421.9,-504.62"/>
</g>
<!-- val_core -->
<g id="node24" class="node">
<title>val_core</title>
<ellipse fill="#ffd76b" stroke="black" stroke-width="2.5" cx="90" cy="-339" rx="90" ry="43"/>
<text text-anchor="start" x="29" y="-347.7" font-family="Helvetica,sans-Serif" font-weight="bold" font-size="11.00">VALIDATION ENGINE</text>
<text text-anchor="start" x="42" y="-336.7" font-family="Helvetica,sans-Serif" font-size="11.00">Testing &amp; proving</text>
<text text-anchor="start" x="23.5" y="-325.7" font-family="Helvetica,sans-Serif" font-size="11.00">Infrastructure validation</text>
</g>
<!-- trans_core&#45;&gt;val_core -->
<g id="edge36" class="edge">
<title>trans_core&#45;&gt;val_core</title>
<path fill="none" stroke="#6bffc4" stroke-width="3" d="M97.58,-433.03C96.53,-420.2 95.37,-405.92 94.28,-392.49"/>
<polygon fill="#6bffc4" stroke="#6bffc4" stroke-width="3" points="97.76,-392.1 93.46,-382.41 90.78,-392.67 97.76,-392.1"/>
<text text-anchor="middle" x="160.5" y="-403.8" font-family="Times,serif" font-size="14.00" fill="#6bffc4"> &#160;generated code &#160;</text>
</g>
<!-- trans_output -->
<g id="node23" class="node">
<title>trans_output</title>
<path fill="#a8ffe2" stroke="black" stroke-width="2.5" d="M649.5,-504C649.5,-504 594.5,-504 594.5,-504 588.5,-504 582.5,-498 582.5,-492 582.5,-492 582.5,-460 582.5,-460 582.5,-454 588.5,-448 594.5,-448 594.5,-448 649.5,-448 649.5,-448 655.5,-448 661.5,-454 661.5,-460 661.5,-460 661.5,-492 661.5,-492 661.5,-498 655.5,-504 649.5,-504"/>
<text text-anchor="middle" x="622" y="-491.2" font-family="Helvetica,sans-Serif" font-size="11.00">Docker</text>
<text text-anchor="middle" x="622" y="-479.2" font-family="Helvetica,sans-Serif" font-size="11.00">YAML</text>
<text text-anchor="middle" x="622" y="-467.2" font-family="Helvetica,sans-Serif" font-size="11.00">Python</text>
<text text-anchor="middle" x="622" y="-455.2" font-family="Helvetica,sans-Serif" font-size="11.00">Kubernetes</text>
</g>
<!-- trans_1&#45;&gt;trans_output -->
<g id="edge19" class="edge">
<title>trans_1&#45;&gt;trans_output</title>
<path fill="none" stroke="#6bffc4" stroke-width="2" d="M355.89,-494.13C364.2,-510.68 379,-534.08 400,-544.5 458.12,-573.35 485.43,-567.77 546,-544.5 563.74,-537.68 579.93,-524.6 592.76,-511.68"/>
<polygon fill="#6bffc4" stroke="#6bffc4" stroke-width="2" points="595.57,-513.8 599.92,-504.13 590.5,-508.98 595.57,-513.8"/>
</g>
<!-- trans_2&#45;&gt;trans_output -->
<g id="edge20" class="edge">
<title>trans_2&#45;&gt;trans_output</title>
<path fill="none" stroke="#6bffc4" stroke-width="2" d="M268.89,-494.13C277.2,-510.68 292,-534.08 313,-544.5 359.38,-567.52 497.67,-563.07 546,-544.5 563.74,-537.68 579.93,-524.6 592.76,-511.68"/>
<polygon fill="#6bffc4" stroke="#6bffc4" stroke-width="2" points="595.57,-513.8 599.92,-504.13 590.5,-508.98 595.57,-513.8"/>
</g>
<!-- trans_3&#45;&gt;trans_output -->
<g id="edge21" class="edge">
<title>trans_3&#45;&gt;trans_output</title>
<path fill="none" stroke="#6bffc4" stroke-width="2" d="M546.8,-476C555.23,-476 563.65,-476 572.07,-476"/>
<polygon fill="#6bffc4" stroke="#6bffc4" stroke-width="2" points="572.35,-479.5 582.35,-476 572.35,-472.5 572.35,-479.5"/>
</g>
<!-- trans_4&#45;&gt;trans_output -->
<g id="edge22" class="edge">
<title>trans_4&#45;&gt;trans_output</title>
<path fill="none" stroke="#6bffc4" stroke-width="2" d="M436.66,-494.08C443.83,-510.58 456.97,-533.95 477,-544.5 504.13,-558.79 517.37,-555.5 546,-544.5 563.74,-537.68 579.93,-524.6 592.76,-511.68"/>
<polygon fill="#6bffc4" stroke="#6bffc4" stroke-width="2" points="595.57,-513.8 599.92,-504.13 590.5,-508.98 595.57,-513.8"/>
</g>
<!-- val_1 -->
<g id="node25" class="node">
<title>val_1</title>
<path fill="#ffe28f" stroke="black" stroke-width="2.5" d="M721,-357C721,-357 657,-357 657,-357 651,-357 645,-351 645,-345 645,-345 645,-333 645,-333 645,-327 651,-321 657,-321 657,-321 721,-321 721,-321 727,-321 733,-327 733,-333 733,-333 733,-345 733,-345 733,-351 727,-357 721,-357"/>
<text text-anchor="middle" x="689" y="-342.2" font-family="Helvetica,sans-Serif" font-size="11.00">Linting</text>
<text text-anchor="middle" x="689" y="-330.2" font-family="Helvetica,sans-Serif" font-size="11.00">Code Quality</text>
</g>
<!-- val_core&#45;&gt;val_1 -->
<g id="edge23" class="edge">
<title>val_core&#45;&gt;val_1</title>
<path fill="none" stroke="#ffd76b" stroke-width="2" d="M141.07,-374.57C162.82,-387.64 189.11,-400.87 215,-407.5 303.69,-430.21 543.31,-444.63 627,-407.5 646.24,-398.96 662.05,-381.18 672.89,-365.87"/>
<polygon fill="#ffd76b" stroke="#ffd76b" stroke-width="2" points="676.02,-367.48 678.68,-357.23 670.21,-363.58 676.02,-367.48"/>
</g>
<!-- val_2 -->
<g id="node26" class="node">
<title>val_2</title>
<path fill="#ffe28f" stroke="black" stroke-width="2.5" d="M615,-357C615,-357 557,-357 557,-357 551,-357 545,-351 545,-345 545,-345 545,-333 545,-333 545,-327 551,-321 557,-321 557,-321 615,-321 615,-321 621,-321 627,-327 627,-333 627,-333 627,-345 627,-345 627,-351 621,-357 615,-357"/>
<text text-anchor="middle" x="586" y="-342.2" font-family="Helvetica,sans-Serif" font-size="11.00">Building</text>
<text text-anchor="middle" x="586" y="-330.2" font-family="Helvetica,sans-Serif" font-size="11.00">Compilation</text>
</g>
<!-- val_core&#45;&gt;val_2 -->
<g id="edge24" class="edge">
<title>val_core&#45;&gt;val_2</title>
<path fill="none" stroke="#ffd76b" stroke-width="2" d="M141.07,-374.57C162.82,-387.64 189.11,-400.87 215,-407.5 281.95,-424.64 463.06,-436.04 526,-407.5 544.9,-398.93 560.19,-381.14 570.6,-365.84"/>
<polygon fill="#ffd76b" stroke="#ffd76b" stroke-width="2" points="573.69,-367.51 576.16,-357.21 567.81,-363.72 573.69,-367.51"/>
</g>
<!-- val_3 -->
<g id="node27" class="node">
<title>val_3</title>
<path fill="#ffe28f" stroke="black" stroke-width="2.5" d="M514.5,-357C514.5,-357 423.5,-357 423.5,-357 417.5,-357 411.5,-351 411.5,-345 411.5,-345 411.5,-333 411.5,-333 411.5,-327 417.5,-321 423.5,-321 423.5,-321 514.5,-321 514.5,-321 520.5,-321 526.5,-327 526.5,-333 526.5,-333 526.5,-345 526.5,-345 526.5,-351 520.5,-357 514.5,-357"/>
<text text-anchor="middle" x="469" y="-342.2" font-family="Helvetica,sans-Serif" font-size="11.00">Testing</text>
<text text-anchor="middle" x="469" y="-330.2" font-family="Helvetica,sans-Serif" font-size="11.00">Unit &amp; Integration</text>
</g>
<!-- val_core&#45;&gt;val_3 -->
<g id="edge25" class="edge">
<title>val_core&#45;&gt;val_3</title>
<path fill="none" stroke="#ffd76b" stroke-width="2" d="M141.07,-374.57C162.82,-387.64 189.11,-400.87 215,-407.5 291.64,-427.12 319.15,-435.87 393,-407.5 415.31,-398.93 435.16,-380.45 448.98,-364.84"/>
<polygon fill="#ffd76b" stroke="#ffd76b" stroke-width="2" points="451.82,-366.89 455.63,-357 446.49,-362.36 451.82,-366.89"/>
</g>
<!-- val_4 -->
<g id="node28" class="node">
<title>val_4</title>
<path fill="#ffe28f" stroke="black" stroke-width="2.5" d="M381.5,-357C381.5,-357 340.5,-357 340.5,-357 334.5,-357 328.5,-351 328.5,-345 328.5,-345 328.5,-333 328.5,-333 328.5,-327 334.5,-321 340.5,-321 340.5,-321 381.5,-321 381.5,-321 387.5,-321 393.5,-327 393.5,-333 393.5,-333 393.5,-345 393.5,-345 393.5,-351 387.5,-357 381.5,-357"/>
<text text-anchor="middle" x="361" y="-342.2" font-family="Helvetica,sans-Serif" font-size="11.00">CI/CD</text>
<text text-anchor="middle" x="361" y="-330.2" font-family="Helvetica,sans-Serif" font-size="11.00">Pipelines</text>
</g>
<!-- val_core&#45;&gt;val_4 -->
<g id="edge26" class="edge">
<title>val_core&#45;&gt;val_4</title>
<path fill="none" stroke="#ffd76b" stroke-width="2" d="M141.07,-374.57C162.82,-387.64 189.11,-400.87 215,-407.5 255.9,-417.97 272.27,-426.45 310,-407.5 327.23,-398.85 340.11,-381.32 348.62,-366.16"/>
<polygon fill="#ffd76b" stroke="#ffd76b" stroke-width="2" points="351.81,-367.6 353.35,-357.12 345.61,-364.36 351.81,-367.6"/>
</g>
<!-- val_5 -->
<g id="node29" class="node">
<title>val_5</title>
<path fill="#ffe28f" stroke="black" stroke-width="2.5" d="M298.5,-357C298.5,-357 227.5,-357 227.5,-357 221.5,-357 215.5,-351 215.5,-345 215.5,-345 215.5,-333 215.5,-333 215.5,-327 221.5,-321 227.5,-321 227.5,-321 298.5,-321 298.5,-321 304.5,-321 310.5,-327 310.5,-333 310.5,-333 310.5,-345 310.5,-345 310.5,-351 304.5,-357 298.5,-357"/>
<text text-anchor="middle" x="263" y="-342.2" font-family="Helvetica,sans-Serif" font-size="11.00">Security</text>
<text text-anchor="middle" x="263" y="-330.2" font-family="Helvetica,sans-Serif" font-size="11.00">CodeQL Scans</text>
</g>
<!-- val_core&#45;&gt;val_5 -->
<g id="edge27" class="edge">
<title>val_core&#45;&gt;val_5</title>
<path fill="none" stroke="#ffd76b" stroke-width="2" d="M180.22,-339C188.57,-339 196.92,-339 205.28,-339"/>
<polygon fill="#ffd76b" stroke="#ffd76b" stroke-width="2" points="205.46,-342.5 215.46,-339 205.46,-335.5 205.46,-342.5"/>
</g>
<!-- exec_core -->
<g id="node30" class="node">
<title>exec_core</title>
<ellipse fill="#ff6b6b" stroke="black" stroke-width="2.5" cx="294" cy="-202" rx="90" ry="43"/>
<text text-anchor="start" x="236.5" y="-210.7" font-family="Helvetica,sans-Serif" font-weight="bold" font-size="11.00" fill="white">LIVE DEPLOYMENT</text>
<text text-anchor="start" x="242.5" y="-199.7" font-family="Helvetica,sans-Serif" font-size="11.00" fill="white">Real infrastructure</text>
<text text-anchor="start" x="246.5" y="-188.7" font-family="Helvetica,sans-Serif" font-size="11.00" fill="white">Running systems</text>
</g>
<!-- val_core&#45;&gt;exec_core -->
<g id="edge37" class="edge">
<title>val_core&#45;&gt;exec_core</title>
<path fill="none" stroke="#ffd76b" stroke-width="3" d="M141.74,-303.76C169.78,-285.2 204.58,-262.18 233.83,-242.82"/>
<polygon fill="#ffd76b" stroke="#ffd76b" stroke-width="3" points="235.91,-245.64 242.31,-237.2 232.04,-239.8 235.91,-245.64"/>
<text text-anchor="middle" x="273" y="-266.8" font-family="Times,serif" font-size="14.00" fill="#ffd76b"> &#160;validated systems &#160;</text>
</g>
<!-- exec_1 -->
<g id="node31" class="node">
<title>exec_1</title>
<path fill="#ff8f8f" stroke="black" stroke-width="2.5" d="M492.5,-220C492.5,-220 431.5,-220 431.5,-220 425.5,-220 419.5,-214 419.5,-208 419.5,-208 419.5,-196 419.5,-196 419.5,-190 425.5,-184 431.5,-184 431.5,-184 492.5,-184 492.5,-184 498.5,-184 504.5,-190 504.5,-196 504.5,-196 504.5,-208 504.5,-208 504.5,-214 498.5,-220 492.5,-220"/>
<text text-anchor="middle" x="462" y="-205.2" font-family="Helvetica,sans-Serif" font-size="11.00">GitHub</text>
<text text-anchor="middle" x="462" y="-193.2" font-family="Helvetica,sans-Serif" font-size="11.00">Repositories</text>
</g>
<!-- exec_core&#45;&gt;exec_1 -->
<g id="edge28" class="edge">
<title>exec_core&#45;&gt;exec_1</title>
<path fill="none" stroke="#ff6b6b" stroke-width="2" d="M384.23,-202C392.58,-202 400.94,-202 409.29,-202"/>
<polygon fill="#ff6b6b" stroke="#ff6b6b" stroke-width="2" points="409.47,-205.5 419.47,-202 409.47,-198.5 409.47,-205.5"/>
</g>
<!-- exec_2 -->
<g id="node32" class="node">
<title>exec_2</title>
<path fill="#ff8f8f" stroke="black" stroke-width="2.5" d="M871,-220C871,-220 819,-220 819,-220 813,-220 807,-214 807,-208 807,-208 807,-196 807,-196 807,-190 813,-184 819,-184 819,-184 871,-184 871,-184 877,-184 883,-190 883,-196 883,-196 883,-208 883,-208 883,-214 877,-220 871,-220"/>
<text text-anchor="middle" x="845" y="-205.2" font-family="Helvetica,sans-Serif" font-size="11.00">Docker</text>
<text text-anchor="middle" x="845" y="-193.2" font-family="Helvetica,sans-Serif" font-size="11.00">Containers</text>
</g>
<!-- exec_core&#45;&gt;exec_2 -->
<g id="edge29" class="edge">
<title>exec_core&#45;&gt;exec_2</title>
<path fill="none" stroke="#ff6b6b" stroke-width="2" d="M345.07,-237.57C366.82,-250.64 393.11,-263.87 419,-270.5 498.65,-290.89 714.71,-305.72 789,-270.5 807.22,-261.86 821.47,-244.08 831.04,-228.8"/>
<polygon fill="#ff6b6b" stroke="#ff6b6b" stroke-width="2" points="834.06,-230.57 836.13,-220.17 828.03,-227.01 834.06,-230.57"/>
</g>
<!-- exec_3 -->
<g id="node33" class="node">
<title>exec_3</title>
<path fill="#ff8f8f" stroke="black" stroke-width="2.5" d="M776.5,-220C776.5,-220 721.5,-220 721.5,-220 715.5,-220 709.5,-214 709.5,-208 709.5,-208 709.5,-196 709.5,-196 709.5,-190 715.5,-184 721.5,-184 721.5,-184 776.5,-184 776.5,-184 782.5,-184 788.5,-190 788.5,-196 788.5,-196 788.5,-208 788.5,-208 788.5,-214 782.5,-220 776.5,-220"/>
<text text-anchor="middle" x="749" y="-205.2" font-family="Helvetica,sans-Serif" font-size="11.00">Kubernetes</text>
<text text-anchor="middle" x="749" y="-193.2" font-family="Helvetica,sans-Serif" font-size="11.00">Clusters</text>
</g>
<!-- exec_core&#45;&gt;exec_3 -->
<g id="edge30" class="edge">
<title>exec_core&#45;&gt;exec_3</title>
<path fill="none" stroke="#ff6b6b" stroke-width="2" d="M345.07,-237.57C366.82,-250.64 393.11,-263.87 419,-270.5 477.56,-285.49 636.16,-295.92 691,-270.5 709.55,-261.9 724.33,-244.11 734.32,-228.82"/>
<polygon fill="#ff6b6b" stroke="#ff6b6b" stroke-width="2" points="737.37,-230.54 739.65,-220.19 731.42,-226.87 737.37,-230.54"/>
</g>
<!-- exec_4 -->
<g id="node34" class="node">
<title>exec_4</title>
<path fill="#ff8f8f" stroke="black" stroke-width="2.5" d="M679,-220C679,-220 621,-220 621,-220 615,-220 609,-214 609,-208 609,-208 609,-196 609,-196 609,-190 615,-184 621,-184 621,-184 679,-184 679,-184 685,-184 691,-190 691,-196 691,-196 691,-208 691,-208 691,-214 685,-220 679,-220"/>
<text text-anchor="middle" x="650" y="-205.2" font-family="Helvetica,sans-Serif" font-size="11.00">Monitoring</text>
<text text-anchor="middle" x="650" y="-193.2" font-family="Helvetica,sans-Serif" font-size="11.00">Dashboards</text>
</g>
<!-- exec_core&#45;&gt;exec_4 -->
<g id="edge31" class="edge">
<title>exec_core&#45;&gt;exec_4</title>
<path fill="none" stroke="#ff6b6b" stroke-width="2" d="M345.07,-237.57C366.82,-250.64 393.11,-263.87 419,-270.5 493.06,-289.46 521.51,-302.36 591,-270.5 609.72,-261.91 624.76,-244.13 634.96,-228.83"/>
<polygon fill="#ff6b6b" stroke="#ff6b6b" stroke-width="2" points="638.03,-230.53 640.4,-220.2 632.11,-226.79 638.03,-230.53"/>
</g>
<!-- exec_5 -->
<g id="node35" class="node">
<title>exec_5</title>
<path fill="#ff8f8f" stroke="black" stroke-width="2.5" d="M579,-220C579,-220 535,-220 535,-220 529,-220 523,-214 523,-208 523,-208 523,-196 523,-196 523,-190 529,-184 535,-184 535,-184 579,-184 579,-184 585,-184 591,-190 591,-196 591,-196 591,-208 591,-208 591,-214 585,-220 579,-220"/>
<text text-anchor="middle" x="557" y="-205.2" font-family="Helvetica,sans-Serif" font-size="11.00">AI Agent</text>
<text text-anchor="middle" x="557" y="-193.2" font-family="Helvetica,sans-Serif" font-size="11.00">Networks</text>
</g>
<!-- exec_core&#45;&gt;exec_5 -->
<g id="edge32" class="edge">
<title>exec_core&#45;&gt;exec_5</title>
<path fill="none" stroke="#ff6b6b" stroke-width="2" d="M345.07,-237.57C366.82,-250.64 393.11,-263.87 419,-270.5 455.6,-279.87 470.08,-287.14 504,-270.5 521.55,-261.89 534.95,-244.36 543.88,-229.18"/>
<polygon fill="#ff6b6b" stroke="#ff6b6b" stroke-width="2" points="547.1,-230.59 548.86,-220.14 540.97,-227.21 547.1,-230.59"/>
</g>
<!-- feedback -->
<g id="node36" class="node">
<title>feedback</title>
<polygon fill="#ffd700" stroke="black" stroke-width="3" points="603,-108 499.63,-54 603,0 706.37,-54 603,-108"/>
<text text-anchor="start" x="552" y="-62.7" font-family="Helvetica,sans-Serif" font-weight="bold" font-size="11.00">FEEDBACK LOOP</text>
<text text-anchor="start" x="548" y="-51.7" font-family="Helvetica,sans-Serif" font-size="11.00">Real&#45;world behavior</text>
<text text-anchor="start" x="543.5" y="-40.7" font-family="Helvetica,sans-Serif" font-size="11.00">informs next intuition</text>
</g>
<!-- exec_core&#45;&gt;feedback -->
<g id="edge38" class="edge">
<title>exec_core&#45;&gt;feedback</title>
<path fill="none" stroke="#ff6b6b" stroke-width="3" d="M357.28,-171.1C410.74,-145.84 486.92,-109.85 540.24,-84.65"/>
<polygon fill="#ff6b6b" stroke="#ff6b6b" stroke-width="3" points="542.04,-87.67 549.59,-80.24 539.05,-81.34 542.04,-87.67"/>
<text text-anchor="middle" x="500.5" y="-129.8" font-family="Times,serif" font-size="14.00" fill="#ff6b6b"> &#160;deployment &#160;</text>
</g>
<!-- feedback&#45;&gt;intuition_core -->
<g id="edge39" class="edge">
<title>feedback&#45;&gt;intuition_core</title>
<path fill="none" stroke="#ffd700" stroke-width="3" stroke-dasharray="5,2" d="M694.16,-60.46C784.98,-71.43 911,-104.1 911,-201 911,-751 911,-751 911,-751 911,-859.21 789.24,-811.58 686,-844 673.25,-848 659.82,-852.31 646.64,-856.59"/>
<polygon fill="#ffd700" stroke="#ffd700" stroke-width="3" points="645.53,-853.27 637.1,-859.69 647.7,-859.93 645.53,-853.27"/>
<text text-anchor="middle" x="967.5" y="-472.3" font-family="Times,serif" font-size="14.00" fill="#ffd700"> &#160;real behavior &#160;</text>
</g>
<!-- example_1 -->
<g id="node37" class="node">
<title>example_1</title>
<polygon fill="#2d2d2d" stroke="black" stroke-width="2.5" points="619,-1008 491,-1008 491,-967 625,-967 625,-1002 619,-1008"/>
<polyline fill="none" stroke="black" stroke-width="2.5" points="619,-1008 619,-1002 "/>
<polyline fill="none" stroke="black" stroke-width="2.5" points="625,-1002 619,-1002 "/>
<text text-anchor="start" x="529.5" y="-996.2" font-family="Helvetica,sans-Serif" font-weight="bold" font-size="11.00" fill="white">Example:</text>
<text text-anchor="start" x="499" y="-985.2" font-family="Helvetica,sans-Serif" font-size="11.00" fill="white">&quot;Departments should</text>
<text text-anchor="start" x="524.5" y="-974.2" font-family="Helvetica,sans-Serif" font-size="11.00" fill="white">self&#45;govern&quot;</text>
</g>
<!-- example_1&#45;&gt;intuition_core -->
<g id="edge40" class="edge">
<title>example_1&#45;&gt;intuition_core</title>
<path fill="none" stroke="#888888" stroke-width="2" stroke-dasharray="1,5" d="M558,-966.57C558,-958.89 558,-949.71 558,-940.39"/>
<polygon fill="#888888" stroke="#888888" stroke-width="2" points="561.5,-940.28 558,-930.28 554.5,-940.28 561.5,-940.28"/>
</g>
<!-- example_2 -->
<g id="node38" class="node">
<title>example_2</title>
<polygon fill="#2d2d2d" stroke="black" stroke-width="2.5" points="874,-639 772,-639 772,-587 880,-587 880,-633 874,-639"/>
<polyline fill="none" stroke="black" stroke-width="2.5" points="874,-639 874,-633 "/>
<polyline fill="none" stroke="black" stroke-width="2.5" points="880,-633 874,-633 "/>
<text text-anchor="start" x="804" y="-627.2" font-family="Helvetica,sans-Serif" font-weight="bold" font-size="11.00" fill="white">Result:</text>
<text text-anchor="start" x="780" y="-616.2" font-family="Helvetica,sans-Serif" font-size="11.00" fill="white">Docker compose</text>
<text text-anchor="start" x="783" y="-605.2" font-family="Helvetica,sans-Serif" font-size="11.00" fill="white">Python workers</text>
<text text-anchor="start" x="782" y="-594.2" font-family="Helvetica,sans-Serif" font-size="11.00" fill="white">YAML manifests</text>
</g>
<!-- example_2&#45;&gt;trans_output -->
<g id="edge41" class="edge">
<title>example_2&#45;&gt;trans_output</title>
<path fill="none" stroke="#888888" stroke-width="2" stroke-dasharray="1,5" d="M788.38,-586.87C780.03,-581.31 771.22,-575.45 763,-570 732.13,-549.53 697.39,-526.61 670.12,-508.65"/>
<polygon fill="#888888" stroke="#888888" stroke-width="2" points="671.82,-505.58 661.54,-503 667.97,-511.43 671.82,-505.58"/>
</g>
<!-- example_3 -->
<g id="node39" class="node">
<title>example_3</title>
<polygon fill="#2d2d2d" stroke="black" stroke-width="2.5" points="876.5,-365 751.5,-365 751.5,-313 882.5,-313 882.5,-359 876.5,-365"/>
<polyline fill="none" stroke="black" stroke-width="2.5" points="876.5,-365 876.5,-359 "/>
<polyline fill="none" stroke="black" stroke-width="2.5" points="882.5,-359 876.5,-359 "/>
<text text-anchor="start" x="798" y="-353.2" font-family="Helvetica,sans-Serif" font-weight="bold" font-size="11.00" fill="white">Proof:</text>
<text text-anchor="start" x="759.5" y="-342.2" font-family="Helvetica,sans-Serif" font-size="11.00" fill="white">22,000+ lines of PRs</text>
<text text-anchor="start" x="771" y="-331.2" font-family="Helvetica,sans-Serif" font-size="11.00" fill="white">Running clusters</text>
<text text-anchor="start" x="774" y="-320.2" font-family="Helvetica,sans-Serif" font-size="11.00" fill="white">Live monitoring</text>
</g>
<!-- example_3&#45;&gt;exec_core -->
<g id="edge42" class="edge">
<title>example_3&#45;&gt;exec_core</title>
<path fill="none" stroke="#888888" stroke-width="2" stroke-dasharray="1,5" d="M778.54,-313C767.16,-306.57 754.42,-300.27 742,-296 600.84,-247.42 554.65,-281.92 410,-245 397.51,-241.81 384.49,-237.8 371.87,-233.54"/>
<polygon fill="#888888" stroke="#888888" stroke-width="2" points="372.91,-230.19 362.31,-230.23 370.62,-236.81 372.91,-230.19"/>
</g>
</g>
</svg>
