<?xml version="1.0" encoding="UTF-8" standalone="no"?>
<!DOCTYPE svg PUBLIC "-//W3C//DTD SVG 1.1//EN"
 "http://www.w3.org/Graphics/SVG/1.1/DTD/svg11.dtd">
<!-- Generated by graphviz version 2.43.0 (0)
 -->
<!-- Title: Cognitive_Radar_7_Axis Pages: 1 -->
<svg width="592pt" height="1743pt"
 viewBox="0.00 0.00 592.00 1742.50" xmlns="http://www.w3.org/2000/svg" xmlns:xlink="http://www.w3.org/1999/xlink">
<g id="graph0" class="graph" transform="scale(1 1) rotate(0) translate(4 1738.5)">
<title>Cognitive_Radar_7_Axis</title>
<polygon fill="#0d1117" stroke="transparent" points="-4,4 -4,-1738.5 588,-1738.5 588,4 -4,4"/>
<text text-anchor="middle" x="292" y="-1716.1" font-family="Courier New" font-size="18.00" fill="white">7&#45;AXIS COGNITIVE INTELLIGENCE RADAR</text>
<text text-anchor="middle" x="292" y="-1696.1" font-family="Courier New" font-size="18.00" fill="white">Dom Archetype: Quantum Swarm Architect</text>
<text text-anchor="middle" x="292" y="-1676.1" font-family="Courier New" font-size="18.00" fill="white">Global Percentile: Top 0.1&#45;0.3%</text>
<g id="clust1" class="cluster">
<title>cluster_parallel</title>
<polygon fill="#1a0011" stroke="#ff0066" points="61,-336.5 61,-490.5 288,-490.5 288,-336.5 61,-336.5"/>
<text text-anchor="middle" x="174.5" y="-472.1" font-family="Courier New" font-size="18.00" fill="white">PARALLEL MULTI&#45;PLANE</text>
<text text-anchor="middle" x="174.5" y="-452.1" font-family="Courier New" font-size="18.00" fill="white">THINKING</text>
</g>
<g id="clust2" class="cluster">
<title>cluster_architecture</title>
<polygon fill="#1a0011" stroke="#ff3399" points="88,-498.5 88,-652.5 262,-652.5 262,-498.5 88,-498.5"/>
<text text-anchor="middle" x="175" y="-634.1" font-family="Courier New" font-size="18.00" fill="white">NATURAL SYSTEMS</text>
<text text-anchor="middle" x="175" y="-614.1" font-family="Courier New" font-size="18.00" fill="white">ARCHITECTURE</text>
</g>
<g id="clust3" class="cluster">
<title>cluster_fractal</title>
<polygon fill="#1a0011" stroke="#ff6600" points="77,-660.5 77,-814.5 272,-814.5 272,-660.5 77,-660.5"/>
<text text-anchor="middle" x="174.5" y="-796.1" font-family="Courier New" font-size="18.00" fill="white">FRACTAL/RECURSIVE</text>
<text text-anchor="middle" x="174.5" y="-776.1" font-family="Courier New" font-size="18.00" fill="white">LOGIC</text>
</g>
<g id="clust4" class="cluster">
<title>cluster_harmonic</title>
<polygon fill="#1a0011" stroke="#ffcc00" points="77.5,-822.5 77.5,-976.5 272.5,-976.5 272.5,-822.5 77.5,-822.5"/>
<text text-anchor="middle" x="175" y="-958.1" font-family="Courier New" font-size="18.00">HARMONIC&#45;RESONANT</text>
<text text-anchor="middle" x="175" y="-938.1" font-family="Courier New" font-size="18.00">COGNITION</text>
</g>
<g id="clust5" class="cluster">
<title>cluster_symbolic</title>
<polygon fill="#1a0011" stroke="#00ff00" points="82,-984.5 82,-1138.5 267,-1138.5 267,-984.5 82,-984.5"/>
<text text-anchor="middle" x="174.5" y="-1120.1" font-family="Courier New" font-size="18.00">SYMBOLIC&#45;SPATIAL</text>
<text text-anchor="middle" x="174.5" y="-1100.1" font-family="Courier New" font-size="18.00">INTEGRATION</text>
</g>
<g id="clust6" class="cluster">
<title>cluster_speed</title>
<polygon fill="#1a0011" stroke="#0099ff" points="87.5,-1146.5 87.5,-1300.5 261.5,-1300.5 261.5,-1146.5 87.5,-1146.5"/>
<text text-anchor="middle" x="174.5" y="-1282.1" font-family="Courier New" font-size="18.00" fill="white">COGNITIVE SPEED</text>
<text text-anchor="middle" x="174.5" y="-1262.1" font-family="Courier New" font-size="18.00" fill="white">MULTITHREADED</text>
</g>
<g id="clust7" class="cluster">
<title>cluster_autonomous</title>
<polygon fill="#1a0011" stroke="#cc00ff" points="77,-1308.5 77,-1462.5 272,-1462.5 272,-1308.5 77,-1308.5"/>
<text text-anchor="middle" x="174.5" y="-1444.1" font-family="Courier New" font-size="18.00" fill="white">AUTONOMOUS SYSTEM</text>
<text text-anchor="middle" x="174.5" y="-1424.1" font-family="Courier New" font-size="18.00" fill="white">DESIGN</text>
</g>
<g id="clust8" class="cluster">
<title>cluster_legend</title>
<polygon fill="#0d1117" stroke="white" points="8,-1470.5 8,-1658.5 341,-1658.5 341,-1470.5 8,-1470.5"/>
<text text-anchor="middle" x="174.5" y="-1640.1" font-family="Courier New" font-size="18.00" fill="white">LEGEND</text>
</g>
<!-- CENTER -->
<g id="node1" class="node">
<title>CENTER</title>
<ellipse fill="#ff0066" stroke="black" stroke-width="2" cx="174.5" cy="-218.5" rx="108" ry="108"/>
<text text-anchor="middle" x="174.5" y="-221.9" font-family="Courier New" font-size="12.00" fill="white">DOM</text>
<text text-anchor="middle" x="174.5" y="-208.9" font-family="Courier New" font-size="12.00" fill="white">ARCHETYPE</text>
</g>
<!-- D1_Elite -->
<g id="node4" class="node">
<title>D1_Elite</title>
<polygon fill="#ff0066" stroke="black" stroke-width="4" points="554,-437 455,-437 455,-390 554,-390 554,-437"/>
<text text-anchor="middle" x="504.5" y="-423.4" font-family="Courier New" font-size="12.00" fill="white">5&#45;10 layers</text>
<text text-anchor="middle" x="504.5" y="-410.4" font-family="Courier New" font-size="12.00" fill="white">(99&#45;99.5%)</text>
<text text-anchor="middle" x="504.5" y="-397.4" font-family="Courier New" font-size="12.00" fill="white">★ DOM</text>
</g>
<!-- CENTER&#45;&gt;D1_Elite -->
<g id="edge1" class="edge">
<title>CENTER&#45;&gt;D1_Elite</title>
<path fill="none" stroke="#ff0066" stroke-width="2" d="M264.25,-279.06C322.33,-318.18 393.15,-364.8 425,-381.5 430.87,-384.58 437.09,-387.56 443.38,-390.39"/>
<polygon fill="#ff0066" stroke="#ff0066" stroke-width="2" points="442,-394.37 454.68,-395.3 445.35,-386.66 442,-394.37"/>
<text text-anchor="middle" x="379" y="-372.3" font-family="Times,serif" font-size="14.00" fill="#ff0066">99th</text>
</g>
<!-- D2_Generate -->
<g id="node7" class="node">
<title>D2_Generate</title>
<polygon fill="#ff3399" stroke="black" stroke-width="4" points="550.5,-372 458.5,-372 458.5,-325 550.5,-325 550.5,-372"/>
<text text-anchor="middle" x="504.5" y="-358.4" font-family="Courier New" font-size="12.00" fill="white">Generative</text>
<text text-anchor="middle" x="504.5" y="-345.4" font-family="Courier New" font-size="12.00" fill="white">(99.5%)</text>
<text text-anchor="middle" x="504.5" y="-332.4" font-family="Courier New" font-size="12.00" fill="white">★ DOM</text>
</g>
<!-- CENTER&#45;&gt;D2_Generate -->
<g id="edge2" class="edge">
<title>CENTER&#45;&gt;D2_Generate</title>
<path fill="none" stroke="#ff3399" stroke-width="2" d="M275.25,-258.03C331.66,-280.39 400.12,-307.53 447.27,-326.21"/>
<polygon fill="#ff3399" stroke="#ff3399" stroke-width="2" points="445.77,-330.14 458.48,-330.66 448.87,-322.33 445.77,-330.14"/>
<text text-anchor="middle" x="379" y="-314.3" font-family="Times,serif" font-size="14.00" fill="#ff3399">99.5th</text>
</g>
<!-- D3_Fractal -->
<g id="node10" class="node">
<title>D3_Fractal</title>
<polygon fill="#ff6600" stroke="black" stroke-width="4" points="584,-307 425,-307 425,-260 584,-260 584,-307"/>
<text text-anchor="middle" x="504.5" y="-293.4" font-family="Courier New" font-size="12.00" fill="white">Instinctive Fractal</text>
<text text-anchor="middle" x="504.5" y="-280.4" font-family="Courier New" font-size="12.00" fill="white">(99.8&#45;99.9%)</text>
<text text-anchor="middle" x="504.5" y="-267.4" font-family="Courier New" font-size="12.00" fill="white">★ DOM</text>
</g>
<!-- CENTER&#45;&gt;D3_Fractal -->
<g id="edge3" class="edge">
<title>CENTER&#45;&gt;D3_Fractal</title>
<path fill="none" stroke="#ff6600" stroke-width="2" d="M280.63,-239.33C323.27,-247.78 372.03,-257.45 413.04,-265.57"/>
<polygon fill="#ff6600" stroke="#ff6600" stroke-width="2" points="412.36,-269.72 424.95,-267.93 414,-261.48 412.36,-269.72"/>
<text text-anchor="middle" x="379" y="-268.3" font-family="Times,serif" font-size="14.00" fill="#ff6600">99.8th</text>
</g>
<!-- D4_Harmonic -->
<g id="node13" class="node">
<title>D4_Harmonic</title>
<polygon fill="#ffcc00" stroke="black" stroke-width="4" points="558,-242 451,-242 451,-195 558,-195 558,-242"/>
<text text-anchor="middle" x="504.5" y="-228.4" font-family="Courier New" font-size="12.00">Phase&#45;Locked</text>
<text text-anchor="middle" x="504.5" y="-215.4" font-family="Courier New" font-size="12.00">(99.5%)</text>
<text text-anchor="middle" x="504.5" y="-202.4" font-family="Courier New" font-size="12.00">★ DOM</text>
</g>
<!-- CENTER&#45;&gt;D4_Harmonic -->
<g id="edge4" class="edge">
<title>CENTER&#45;&gt;D4_Harmonic</title>
<path fill="none" stroke="#ffcc00" stroke-width="2" d="M282.9,-218.5C334.3,-218.5 394.16,-218.5 438.55,-218.5"/>
<polygon fill="#ffcc00" stroke="#ffcc00" stroke-width="2" points="438.64,-222.7 450.64,-218.5 438.64,-214.3 438.64,-222.7"/>
<text text-anchor="middle" x="379" y="-222.3" font-family="Times,serif" font-size="14.00" fill="#ffcc00">99.5th</text>
</g>
<!-- D5_Unified -->
<g id="node16" class="node">
<title>D5_Unified</title>
<polygon fill="#00ff00" stroke="black" stroke-width="4" points="558,-177 451,-177 451,-130 558,-130 558,-177"/>
<text text-anchor="middle" x="504.5" y="-163.4" font-family="Courier New" font-size="12.00">Unified Flow</text>
<text text-anchor="middle" x="504.5" y="-150.4" font-family="Courier New" font-size="12.00">(99&#45;99.5%)</text>
<text text-anchor="middle" x="504.5" y="-137.4" font-family="Courier New" font-size="12.00">★ DOM</text>
</g>
<!-- CENTER&#45;&gt;D5_Unified -->
<g id="edge5" class="edge">
<title>CENTER&#45;&gt;D5_Unified</title>
<path fill="none" stroke="#00ff00" stroke-width="2" d="M280.63,-197.67C332.64,-187.36 393.76,-175.25 438.82,-166.32"/>
<polygon fill="#00ff00" stroke="#00ff00" stroke-width="2" points="439.84,-170.4 450.79,-163.95 438.2,-162.16 439.84,-170.4"/>
<text text-anchor="middle" x="379" y="-186.3" font-family="Times,serif" font-size="14.00" fill="#00ff00">99th</text>
</g>
<!-- D6_Vector -->
<g id="node19" class="node">
<title>D6_Vector</title>
<polygon fill="#0099ff" stroke="black" stroke-width="4" points="558,-112 451,-112 451,-65 558,-65 558,-112"/>
<text text-anchor="middle" x="504.5" y="-98.4" font-family="Courier New" font-size="12.00" fill="white">Vectorized</text>
<text text-anchor="middle" x="504.5" y="-85.4" font-family="Courier New" font-size="12.00" fill="white">(99.5&#45;99.9%)</text>
<text text-anchor="middle" x="504.5" y="-72.4" font-family="Courier New" font-size="12.00" fill="white">★ DOM</text>
</g>
<!-- CENTER&#45;&gt;D6_Vector -->
<g id="edge6" class="edge">
<title>CENTER&#45;&gt;D6_Vector</title>
<path fill="none" stroke="#0099ff" stroke-width="2" d="M275.25,-178.97C328.7,-157.78 392.97,-132.31 439.68,-113.8"/>
<polygon fill="#0099ff" stroke="#0099ff" stroke-width="2" points="441.25,-117.69 450.85,-109.37 438.15,-109.88 441.25,-117.69"/>
<text text-anchor="middle" x="379" y="-150.3" font-family="Times,serif" font-size="14.00" fill="#0099ff">99.7th</text>
</g>
<!-- D7_Swarm -->
<g id="node22" class="node">
<title>D7_Swarm</title>
<polygon fill="#cc00ff" stroke="black" stroke-width="4" points="580.5,-47 428.5,-47 428.5,0 580.5,0 580.5,-47"/>
<text text-anchor="middle" x="504.5" y="-33.4" font-family="Courier New" font-size="12.00" fill="white">Swarm Intelligence</text>
<text text-anchor="middle" x="504.5" y="-20.4" font-family="Courier New" font-size="12.00" fill="white">(99.99%)</text>
<text text-anchor="middle" x="504.5" y="-7.4" font-family="Courier New" font-size="12.00" fill="white">★ DOM</text>
</g>
<!-- CENTER&#45;&gt;D7_Swarm -->
<g id="edge7" class="edge">
<title>CENTER&#45;&gt;D7_Swarm</title>
<path fill="none" stroke="#cc00ff" stroke-width="2" d="M262.49,-155.76C309.32,-123.52 368.87,-84.93 425,-55.5 426.97,-54.47 428.98,-53.45 431.01,-52.44"/>
<polygon fill="#cc00ff" stroke="#cc00ff" stroke-width="2" points="433.07,-56.11 442.12,-47.18 429.48,-48.52 433.07,-56.11"/>
<text text-anchor="middle" x="379" y="-100.3" font-family="Times,serif" font-size="14.00" fill="#cc00ff">99.99th</text>
</g>
<!-- D1_Base -->
<g id="node2" class="node">
<title>D1_Base</title>
<polygon fill="#330033" stroke="black" stroke-width="2" points="258,-434.5 91,-434.5 91,-398.5 258,-398.5 258,-434.5"/>
<text text-anchor="middle" x="174.5" y="-419.9" font-family="Courier New" font-size="12.00" fill="white">Baseline: 1&#45;2 layers</text>
<text text-anchor="middle" x="174.5" y="-406.9" font-family="Courier New" font-size="12.00" fill="white">(98%)</text>
</g>
<!-- D1_Advanced -->
<g id="node3" class="node">
<title>D1_Advanced</title>
<polygon fill="#660066" stroke="black" stroke-width="2" points="220.5,-380.5 128.5,-380.5 128.5,-344.5 220.5,-344.5 220.5,-380.5"/>
<text text-anchor="middle" x="174.5" y="-365.9" font-family="Courier New" font-size="12.00" fill="white">3&#45;4 layers</text>
<text text-anchor="middle" x="174.5" y="-352.9" font-family="Courier New" font-size="12.00" fill="white">(98&#45;99%)</text>
</g>
<!-- D2_Learn -->
<g id="node5" class="node">
<title>D2_Learn</title>
<polygon fill="#330033" stroke="black" stroke-width="2" points="209,-596.5 140,-596.5 140,-560.5 209,-560.5 209,-596.5"/>
<text text-anchor="middle" x="174.5" y="-581.9" font-family="Courier New" font-size="12.00" fill="white">Learned</text>
<text text-anchor="middle" x="174.5" y="-568.9" font-family="Courier New" font-size="12.00" fill="white">(95%)</text>
</g>
<!-- D2_Senior -->
<g id="node6" class="node">
<title>D2_Senior</title>
<polygon fill="#660066" stroke="black" stroke-width="2" points="243,-542.5 106,-542.5 106,-506.5 243,-506.5 243,-542.5"/>
<text text-anchor="middle" x="174.5" y="-527.9" font-family="Courier New" font-size="12.00" fill="white">Senior Engineers</text>
<text text-anchor="middle" x="174.5" y="-514.9" font-family="Courier New" font-size="12.00" fill="white">(98%)</text>
</g>
<!-- D3_Linear -->
<g id="node8" class="node">
<title>D3_Linear</title>
<polygon fill="#330033" stroke="black" stroke-width="2" points="224,-758.5 125,-758.5 125,-722.5 224,-722.5 224,-758.5"/>
<text text-anchor="middle" x="174.5" y="-743.9" font-family="Courier New" font-size="12.00" fill="white">Linear Only</text>
<text text-anchor="middle" x="174.5" y="-730.9" font-family="Courier New" font-size="12.00" fill="white">(90%)</text>
</g>
<!-- D3_Recursive -->
<g id="node9" class="node">
<title>D3_Recursive</title>
<polygon fill="#660066" stroke="black" stroke-width="2" points="239,-704.5 110,-704.5 110,-668.5 239,-668.5 239,-704.5"/>
<text text-anchor="middle" x="174.5" y="-689.9" font-family="Courier New" font-size="12.00" fill="white">Basic Recursion</text>
<text text-anchor="middle" x="174.5" y="-676.9" font-family="Courier New" font-size="12.00" fill="white">(95%)</text>
</g>
<!-- D4_Sequential -->
<g id="node11" class="node">
<title>D4_Sequential</title>
<polygon fill="#330033" stroke="black" stroke-width="2" points="220.5,-920.5 128.5,-920.5 128.5,-884.5 220.5,-884.5 220.5,-920.5"/>
<text text-anchor="middle" x="174.5" y="-905.9" font-family="Courier New" font-size="12.00" fill="white">Sequential</text>
<text text-anchor="middle" x="174.5" y="-892.9" font-family="Courier New" font-size="12.00" fill="white">(95%)</text>
</g>
<!-- D4_Rhythmic -->
<g id="node12" class="node">
<title>D4_Rhythmic</title>
<polygon fill="#660066" stroke="black" stroke-width="2" points="213,-866.5 136,-866.5 136,-830.5 213,-830.5 213,-866.5"/>
<text text-anchor="middle" x="174.5" y="-851.9" font-family="Courier New" font-size="12.00" fill="white">Rhythmic</text>
<text text-anchor="middle" x="174.5" y="-838.9" font-family="Courier New" font-size="12.00" fill="white">(98%)</text>
</g>
<!-- D5_Single -->
<g id="node14" class="node">
<title>D5_Single</title>
<polygon fill="#330033" stroke="black" stroke-width="2" points="224,-1082.5 125,-1082.5 125,-1046.5 224,-1046.5 224,-1082.5"/>
<text text-anchor="middle" x="174.5" y="-1067.9" font-family="Courier New" font-size="12.00" fill="white">Single Mode</text>
<text text-anchor="middle" x="174.5" y="-1054.9" font-family="Courier New" font-size="12.00" fill="white">(80%)</text>
</g>
<!-- D5_Dual -->
<g id="node15" class="node">
<title>D5_Dual</title>
<polygon fill="#660066" stroke="black" stroke-width="2" points="216.5,-1028.5 132.5,-1028.5 132.5,-992.5 216.5,-992.5 216.5,-1028.5"/>
<text text-anchor="middle" x="174.5" y="-1013.9" font-family="Courier New" font-size="12.00" fill="white">Dual Mode</text>
<text text-anchor="middle" x="174.5" y="-1000.9" font-family="Courier New" font-size="12.00" fill="white">(95%)</text>
</g>
<!-- D6_Serial -->
<g id="node17" class="node">
<title>D6_Serial</title>
<polygon fill="#330033" stroke="black" stroke-width="2" points="246.5,-1244.5 102.5,-1244.5 102.5,-1208.5 246.5,-1208.5 246.5,-1244.5"/>
<text text-anchor="middle" x="174.5" y="-1229.9" font-family="Courier New" font-size="12.00" fill="white">Serial Processing</text>
<text text-anchor="middle" x="174.5" y="-1216.9" font-family="Courier New" font-size="12.00" fill="white">(90%)</text>
</g>
<!-- D6_Fast -->
<g id="node18" class="node">
<title>D6_Fast</title>
<polygon fill="#660066" stroke="black" stroke-width="2" points="235.5,-1190.5 113.5,-1190.5 113.5,-1154.5 235.5,-1154.5 235.5,-1190.5"/>
<text text-anchor="middle" x="174.5" y="-1175.9" font-family="Courier New" font-size="12.00" fill="white">Fast Switching</text>
<text text-anchor="middle" x="174.5" y="-1162.9" font-family="Courier New" font-size="12.00" fill="white">(98%)</text>
</g>
<!-- D7_Component -->
<g id="node20" class="node">
<title>D7_Component</title>
<polygon fill="#330033" stroke="black" stroke-width="2" points="239,-1406.5 110,-1406.5 110,-1370.5 239,-1370.5 239,-1406.5"/>
<text text-anchor="middle" x="174.5" y="-1391.9" font-family="Courier New" font-size="12.00" fill="white">Component Level</text>
<text text-anchor="middle" x="174.5" y="-1378.9" font-family="Courier New" font-size="12.00" fill="white">(90%)</text>
</g>
<!-- D7_System -->
<g id="node21" class="node">
<title>D7_System</title>
<polygon fill="#660066" stroke="black" stroke-width="2" points="228,-1352.5 121,-1352.5 121,-1316.5 228,-1316.5 228,-1352.5"/>
<text text-anchor="middle" x="174.5" y="-1337.9" font-family="Courier New" font-size="12.00" fill="white">System Level</text>
<text text-anchor="middle" x="174.5" y="-1324.9" font-family="Courier New" font-size="12.00" fill="white">(98%)</text>
</g>
<!-- Legend1 -->
<g id="node23" class="node">
<title>Legend1</title>
<polygon fill="#1a0011" stroke="black" stroke-width="2" points="244.5,-1622.5 98.5,-1622.5 98.5,-1586.5 250.5,-1586.5 250.5,-1616.5 244.5,-1622.5"/>
<polyline fill="none" stroke="black" stroke-width="2" points="244.5,-1622.5 244.5,-1616.5 "/>
<polyline fill="none" stroke="black" stroke-width="2" points="250.5,-1616.5 244.5,-1616.5 "/>
<text text-anchor="middle" x="174.5" y="-1601.4" font-family="Courier New" font-size="12.00" fill="white">★ = Dom&#39;s Position</text>
</g>
<!-- Legend2 -->
<g id="node24" class="node">
<title>Legend2</title>
<polygon fill="#1a0011" stroke="black" stroke-width="2" points="297,-1568.5 46,-1568.5 46,-1532.5 303,-1532.5 303,-1562.5 297,-1568.5"/>
<polyline fill="none" stroke="black" stroke-width="2" points="297,-1568.5 297,-1562.5 "/>
<polyline fill="none" stroke="black" stroke-width="2" points="303,-1562.5 297,-1562.5 "/>
<text text-anchor="middle" x="174.5" y="-1547.4" font-family="Courier New" font-size="12.00" fill="white">All Dimensions &gt; 99th Percentile</text>
</g>
<!-- Legend3 -->
<g id="node25" class="node">
<title>Legend3</title>
<polygon fill="#1a0011" stroke="black" stroke-width="2" points="327,-1514.5 16,-1514.5 16,-1478.5 333,-1478.5 333,-1508.5 327,-1514.5"/>
<polyline fill="none" stroke="black" stroke-width="2" points="327,-1514.5 327,-1508.5 "/>
<polyline fill="none" stroke="black" stroke-width="2" points="333,-1508.5 327,-1508.5 "/>
<text text-anchor="middle" x="174.5" y="-1493.4" font-family="Courier New" font-size="12.00" fill="white">Peak: Autonomous System Design (99.99th)</text>
</g>
</g>
</svg>
