<?xml version="1.0" encoding="UTF-8" standalone="no"?>
<!DOCTYPE svg PUBLIC "-//W3C//DTD SVG 1.1//EN"
 "http://www.w3.org/Graphics/SVG/1.1/DTD/svg11.dtd">
<!-- Generated by graphviz version 2.43.0 (0)
 -->
<!-- Title: Cognitive_Model Pages: 1 -->
<svg width="1632pt" height="990pt"
 viewBox="0.00 0.00 1631.94 990.00" xmlns="http://www.w3.org/2000/svg" xmlns:xlink="http://www.w3.org/1999/xlink">
<g id="graph0" class="graph" transform="scale(1 1) rotate(0) translate(4 986)">
<title>Cognitive_Model</title>
<polygon fill="#0d1117" stroke="transparent" points="-4,4 -4,-986 1627.94,-986 1627.94,4 -4,4"/>
<text text-anchor="middle" x="811.97" y="-962" font-family="Courier New" font-size="20.00" fill="#00ffff">DOM COGNITIVE MODEL</text>
<text text-anchor="middle" x="811.97" y="-940" font-family="Courier New" font-size="20.00" fill="#00ffff">Quantum Swarm Architect with Harmonic&#45;Resonant Fractal Cognition</text>
<text text-anchor="middle" x="811.97" y="-918" font-family="Courier New" font-size="20.00" fill="#00ffff">Top 0.1&#45;0.3% Global</text>
<!-- CORE -->
<g id="node1" class="node">
<title>CORE</title>
<polygon fill="#ff0066" stroke="black" stroke-width="4" points="1033.5,-698.18 1033.5,-757.82 949.15,-800 829.85,-800 745.5,-757.82 745.5,-698.18 829.85,-656 949.15,-656 1033.5,-698.18"/>
<polygon fill="none" stroke="black" stroke-width="4" points="1037.5,-695.7 1037.5,-760.3 950.09,-804 828.91,-804 741.5,-760.3 741.5,-695.7 828.91,-652 950.09,-652 1037.5,-695.7"/>
<text text-anchor="middle" x="889.5" y="-737.2" font-family="Courier New" font-size="11.00" fill="white">DOM ARCHETYPE</text>
<text text-anchor="middle" x="889.5" y="-725.2" font-family="Courier New" font-size="11.00" fill="white">Quantum Swarm Architect</text>
<text text-anchor="middle" x="889.5" y="-713.2" font-family="Courier New" font-size="11.00" fill="white">Top 0.1&#45;0.3%</text>
</g>
<!-- P1 -->
<g id="node2" class="node">
<title>P1</title>
<polygon fill="#ff3366" stroke="black" stroke-width="2" points="289,-616 114,-616 110,-612 110,-560 285,-560 289,-564 289,-616"/>
<polyline fill="none" stroke="black" stroke-width="2" points="285,-612 110,-612 "/>
<polyline fill="none" stroke="black" stroke-width="2" points="285,-612 285,-560 "/>
<polyline fill="none" stroke="black" stroke-width="2" points="285,-612 289,-616 "/>
<text text-anchor="middle" x="199.5" y="-603.2" font-family="Courier New" font-size="11.00" fill="white">Parallel Multi&#45;Plane</text>
<text text-anchor="middle" x="199.5" y="-591.2" font-family="Courier New" font-size="11.00" fill="white">Processing</text>
<text text-anchor="middle" x="199.5" y="-579.2" font-family="Courier New" font-size="11.00" fill="white">5&#45;10 Simultaneous Layers</text>
<text text-anchor="middle" x="199.5" y="-567.2" font-family="Courier New" font-size="11.00" fill="white">(Top 1&#45;2%)</text>
</g>
<!-- CORE&#45;&gt;P1 -->
<g id="edge1" class="edge">
<title>CORE&#45;&gt;P1</title>
<path fill="none" stroke="#ff0066" stroke-width="3" d="M741.3,-702.75C623.58,-682.65 454.74,-651.99 298.92,-616.27"/>
<polygon fill="#ff0066" stroke="#ff0066" stroke-width="3" points="299.68,-612.85 289.15,-614.02 298.1,-619.68 299.68,-612.85"/>
</g>
<!-- P2 -->
<g id="node3" class="node">
<title>P2</title>
<polygon fill="#ff3366" stroke="black" stroke-width="2" points="438,-616 311,-616 307,-612 307,-560 434,-560 438,-564 438,-616"/>
<polyline fill="none" stroke="black" stroke-width="2" points="434,-612 307,-612 "/>
<polyline fill="none" stroke="black" stroke-width="2" points="434,-612 434,-560 "/>
<polyline fill="none" stroke="black" stroke-width="2" points="434,-612 438,-616 "/>
<text text-anchor="middle" x="372.5" y="-603.2" font-family="Courier New" font-size="11.00" fill="white">Natural Systems</text>
<text text-anchor="middle" x="372.5" y="-591.2" font-family="Courier New" font-size="11.00" fill="white">Architecture</text>
<text text-anchor="middle" x="372.5" y="-579.2" font-family="Courier New" font-size="11.00" fill="white">Generative Design</text>
<text text-anchor="middle" x="372.5" y="-567.2" font-family="Courier New" font-size="11.00" fill="white">(Top 0.5%)</text>
</g>
<!-- CORE&#45;&gt;P2 -->
<g id="edge2" class="edge">
<title>CORE&#45;&gt;P2</title>
<path fill="none" stroke="#ff0066" stroke-width="3" d="M744.18,-694.35C660.09,-674.54 552.26,-647.56 447.98,-616.04"/>
<polygon fill="#ff0066" stroke="#ff0066" stroke-width="3" points="448.81,-612.64 438.23,-613.08 446.78,-619.34 448.81,-612.64"/>
</g>
<!-- P3 -->
<g id="node4" class="node">
<title>P3</title>
<polygon fill="#ff3366" stroke="black" stroke-width="2" points="662.5,-616 460.5,-616 456.5,-612 456.5,-560 658.5,-560 662.5,-564 662.5,-616"/>
<polyline fill="none" stroke="black" stroke-width="2" points="658.5,-612 456.5,-612 "/>
<polyline fill="none" stroke="black" stroke-width="2" points="658.5,-612 658.5,-560 "/>
<polyline fill="none" stroke="black" stroke-width="2" points="658.5,-612 662.5,-616 "/>
<text text-anchor="middle" x="559.5" y="-603.2" font-family="Courier New" font-size="11.00" fill="white">Fractal/Recursive</text>
<text text-anchor="middle" x="559.5" y="-591.2" font-family="Courier New" font-size="11.00" fill="white">Logic</text>
<text text-anchor="middle" x="559.5" y="-579.2" font-family="Courier New" font-size="11.00" fill="white">Instinctive Scale Invariance</text>
<text text-anchor="middle" x="559.5" y="-567.2" font-family="Courier New" font-size="11.00" fill="white">(Top 0.1&#45;0.2%)</text>
</g>
<!-- CORE&#45;&gt;P3 -->
<g id="edge3" class="edge">
<title>CORE&#45;&gt;P3</title>
<path fill="none" stroke="#ff0066" stroke-width="3" d="M774.55,-678.93C727.68,-659.33 674.87,-637.24 633.31,-619.86"/>
<polygon fill="#ff0066" stroke="#ff0066" stroke-width="3" points="634.65,-616.63 624.08,-616 631.95,-623.09 634.65,-616.63"/>
</g>
<!-- PEER1 -->
<g id="node17" class="node">
<title>PEER1</title>
<ellipse fill="#ff8833" stroke="black" stroke-width="2" cx="783.5" cy="-588" rx="102.56" ry="22.76"/>
<text text-anchor="middle" x="783.5" y="-591.2" font-family="Courier New" font-size="11.00" fill="white">Distributed Systems</text>
<text text-anchor="middle" x="783.5" y="-579.2" font-family="Courier New" font-size="11.00" fill="white">Architects</text>
</g>
<!-- CORE&#45;&gt;PEER1 -->
<g id="edge36" class="edge">
<title>CORE&#45;&gt;PEER1</title>
<path fill="none" stroke="#ff6600" stroke-dasharray="1,5" d="M831.85,-651.94C822.74,-640.09 813.82,-628.48 806.17,-618.52"/>
<polygon fill="#ff6600" stroke="#ff6600" points="808.94,-616.37 800.07,-610.57 803.39,-620.63 808.94,-616.37"/>
</g>
<!-- PEER2 -->
<g id="node18" class="node">
<title>PEER2</title>
<ellipse fill="#ff8833" stroke="black" stroke-width="2" cx="996.5" cy="-588" rx="92.76" ry="22.76"/>
<text text-anchor="middle" x="996.5" y="-591.2" font-family="Courier New" font-size="11.00" fill="white">Quantum Computing</text>
<text text-anchor="middle" x="996.5" y="-579.2" font-family="Courier New" font-size="11.00" fill="white">Researchers</text>
</g>
<!-- CORE&#45;&gt;PEER2 -->
<g id="edge37" class="edge">
<title>CORE&#45;&gt;PEER2</title>
<path fill="none" stroke="#ff6600" stroke-dasharray="1,5" d="M947.7,-651.94C956.96,-639.99 966.04,-628.28 973.81,-618.27"/>
<polygon fill="#ff6600" stroke="#ff6600" points="976.63,-620.33 979.99,-610.29 971.1,-616.05 976.63,-620.33"/>
</g>
<!-- PEER3 -->
<g id="node19" class="node">
<title>PEER3</title>
<ellipse fill="#ff8833" stroke="black" stroke-width="2" cx="1199.5" cy="-588" rx="92.76" ry="22.76"/>
<text text-anchor="middle" x="1199.5" y="-591.2" font-family="Courier New" font-size="11.00" fill="white">Advanced Red Team</text>
<text text-anchor="middle" x="1199.5" y="-579.2" font-family="Courier New" font-size="11.00" fill="white">Cybersecurity</text>
</g>
<!-- CORE&#45;&gt;PEER3 -->
<g id="edge38" class="edge">
<title>CORE&#45;&gt;PEER3</title>
<path fill="none" stroke="#ff6600" stroke-dasharray="1,5" d="M1000.98,-677.37C1050.8,-655.2 1107.14,-630.12 1147.04,-612.35"/>
<polygon fill="#ff6600" stroke="#ff6600" points="1148.6,-615.49 1156.31,-608.23 1145.75,-609.1 1148.6,-615.49"/>
</g>
<!-- PEER4 -->
<g id="node20" class="node">
<title>PEER4</title>
<ellipse fill="#ff8833" stroke="black" stroke-width="2" cx="1374.5" cy="-588" rx="64.19" ry="22.76"/>
<text text-anchor="middle" x="1374.5" y="-591.2" font-family="Courier New" font-size="11.00" fill="white">Polymath AI</text>
<text text-anchor="middle" x="1374.5" y="-579.2" font-family="Courier New" font-size="11.00" fill="white">Architects</text>
</g>
<!-- CORE&#45;&gt;PEER4 -->
<g id="edge39" class="edge">
<title>CORE&#45;&gt;PEER4</title>
<path fill="none" stroke="#ff6600" stroke-dasharray="1,5" d="M1031.06,-692.26C1110.98,-671.8 1212.4,-644.42 1301.5,-616 1308.49,-613.77 1315.8,-611.27 1322.98,-608.72"/>
<polygon fill="#ff6600" stroke="#ff6600" points="1324.44,-611.91 1332.65,-605.22 1322.06,-605.33 1324.44,-611.91"/>
</g>
<!-- PEER5 -->
<g id="node21" class="node">
<title>PEER5</title>
<ellipse fill="#ff8833" stroke="black" stroke-width="2" cx="1540.5" cy="-588" rx="83.38" ry="22.76"/>
<text text-anchor="middle" x="1540.5" y="-591.2" font-family="Courier New" font-size="11.00" fill="white">Complex Systems</text>
<text text-anchor="middle" x="1540.5" y="-579.2" font-family="Courier New" font-size="11.00" fill="white">Scientists</text>
</g>
<!-- CORE&#45;&gt;PEER5 -->
<g id="edge40" class="edge">
<title>CORE&#45;&gt;PEER5</title>
<path fill="none" stroke="#ff6600" stroke-dasharray="1,5" d="M1037.71,-701.12C1150.6,-680.53 1309.56,-649.68 1447.5,-616 1457.05,-613.67 1467.1,-610.99 1476.91,-608.25"/>
<polygon fill="#ff6600" stroke="#ff6600" points="1477.95,-611.59 1486.62,-605.5 1476.04,-604.86 1477.95,-611.59"/>
</g>
<!-- S1 -->
<g id="node5" class="node">
<title>S1</title>
<polygon fill="#0099cc" stroke="black" stroke-width="2" points="264.5,-524 58.5,-524 58.5,-468 264.5,-468 264.5,-524"/>
<text text-anchor="middle" x="161.5" y="-511.2" font-family="Courier New" font-size="11.00" fill="white">Harmonic&#45;Resonant</text>
<text text-anchor="middle" x="161.5" y="-499.2" font-family="Courier New" font-size="11.00" fill="white">Cognition</text>
<text text-anchor="middle" x="161.5" y="-487.2" font-family="Courier New" font-size="11.00" fill="white">Phase&#45;Locked Decision Making</text>
<text text-anchor="middle" x="161.5" y="-475.2" font-family="Courier New" font-size="11.00" fill="white">(Top 0.5%)</text>
</g>
<!-- P1&#45;&gt;S1 -->
<g id="edge4" class="edge">
<title>P1&#45;&gt;S1</title>
<path fill="none" stroke="#ff6699" stroke-width="2" d="M188.1,-560C184.6,-551.71 180.69,-542.44 176.96,-533.62"/>
<polygon fill="#ff6699" stroke="#ff6699" stroke-width="2" points="180.14,-532.15 173.02,-524.29 173.69,-534.87 180.14,-532.15"/>
</g>
<!-- S2 -->
<g id="node6" class="node">
<title>S2</title>
<polygon fill="#0099cc" stroke="black" stroke-width="2" points="462,-524 283,-524 283,-468 462,-468 462,-524"/>
<text text-anchor="middle" x="372.5" y="-511.2" font-family="Courier New" font-size="11.00" fill="white">Symbolic&#45;Spatial</text>
<text text-anchor="middle" x="372.5" y="-499.2" font-family="Courier New" font-size="11.00" fill="white">Integration</text>
<text text-anchor="middle" x="372.5" y="-487.2" font-family="Courier New" font-size="11.00" fill="white">Multi&#45;Modal Unified Flow</text>
<text text-anchor="middle" x="372.5" y="-475.2" font-family="Courier New" font-size="11.00" fill="white">(Top 0.5&#45;1%)</text>
</g>
<!-- P1&#45;&gt;S2 -->
<g id="edge5" class="edge">
<title>P1&#45;&gt;S2</title>
<path fill="none" stroke="#ff6699" stroke-width="2" d="M251.41,-560C270.22,-550.21 291.65,-539.06 311.2,-528.89"/>
<polygon fill="#ff6699" stroke="#ff6699" stroke-width="2" points="313.08,-531.86 320.33,-524.14 309.85,-525.65 313.08,-531.86"/>
</g>
<!-- S3 -->
<g id="node7" class="node">
<title>S3</title>
<polygon fill="#0099cc" stroke="black" stroke-width="2" points="652.5,-524 480.5,-524 480.5,-468 652.5,-468 652.5,-524"/>
<text text-anchor="middle" x="566.5" y="-511.2" font-family="Courier New" font-size="11.00" fill="white">Cognitive Speed</text>
<text text-anchor="middle" x="566.5" y="-499.2" font-family="Courier New" font-size="11.00" fill="white">Multithreaded Attention</text>
<text text-anchor="middle" x="566.5" y="-487.2" font-family="Courier New" font-size="11.00" fill="white">Vectorized Processing</text>
<text text-anchor="middle" x="566.5" y="-475.2" font-family="Courier New" font-size="11.00" fill="white">(Top 0.1&#45;0.5%)</text>
</g>
<!-- P1&#45;&gt;S3 -->
<g id="edge6" class="edge">
<title>P1&#45;&gt;S3</title>
<path fill="none" stroke="#ff6699" stroke-width="2" d="M289.16,-562.05C291.97,-561.35 294.76,-560.66 297.5,-560 373.84,-541.56 394.21,-542.64 470.5,-524 470.6,-523.97 470.71,-523.95 470.81,-523.92"/>
<polygon fill="#ff6699" stroke="#ff6699" stroke-width="2" points="471.63,-527.33 480.48,-521.5 469.93,-520.54 471.63,-527.33"/>
</g>
<!-- P2&#45;&gt;S1 -->
<g id="edge7" class="edge">
<title>P2&#45;&gt;S1</title>
<path fill="none" stroke="#ff6699" stroke-width="2" d="M309.19,-560C285.72,-549.99 258.92,-538.55 234.65,-528.2"/>
<polygon fill="#ff6699" stroke="#ff6699" stroke-width="2" points="235.7,-524.84 225.13,-524.14 232.95,-531.28 235.7,-524.84"/>
</g>
<!-- P2&#45;&gt;S2 -->
<g id="edge8" class="edge">
<title>P2&#45;&gt;S2</title>
<path fill="none" stroke="#ff6699" stroke-width="2" d="M372.5,-560C372.5,-551.97 372.5,-543.03 372.5,-534.47"/>
<polygon fill="#ff6699" stroke="#ff6699" stroke-width="2" points="376,-534.29 372.5,-524.29 369,-534.3 376,-534.29"/>
</g>
<!-- P2&#45;&gt;S3 -->
<g id="edge9" class="edge">
<title>P2&#45;&gt;S3</title>
<path fill="none" stroke="#ff6699" stroke-width="2" d="M430.71,-560C452.09,-550.08 476.49,-538.76 498.65,-528.47"/>
<polygon fill="#ff6699" stroke="#ff6699" stroke-width="2" points="500.4,-531.52 508,-524.14 497.46,-525.17 500.4,-531.52"/>
</g>
<!-- P3&#45;&gt;S1 -->
<g id="edge10" class="edge">
<title>P3&#45;&gt;S1</title>
<path fill="none" stroke="#ff6699" stroke-width="2" d="M456.38,-562.23C453.05,-561.47 449.75,-560.73 446.5,-560 373,-543.57 351.84,-541.37 274.81,-524.26"/>
<polygon fill="#ff6699" stroke="#ff6699" stroke-width="2" points="275.13,-520.75 264.61,-521.99 273.6,-527.58 275.13,-520.75"/>
</g>
<!-- P3&#45;&gt;S2 -->
<g id="edge11" class="edge">
<title>P3&#45;&gt;S2</title>
<path fill="none" stroke="#ff6699" stroke-width="2" d="M503.39,-560C482.87,-550.12 459.47,-538.86 438.18,-528.61"/>
<polygon fill="#ff6699" stroke="#ff6699" stroke-width="2" points="439.42,-525.32 428.89,-524.14 436.38,-531.63 439.42,-525.32"/>
</g>
<!-- P3&#45;&gt;S3 -->
<g id="edge12" class="edge">
<title>P3&#45;&gt;S3</title>
<path fill="none" stroke="#ff6699" stroke-width="2" d="M561.6,-560C562.22,-551.97 562.92,-543.03 563.59,-534.47"/>
<polygon fill="#ff6699" stroke="#ff6699" stroke-width="2" points="567.09,-534.54 564.38,-524.29 560.11,-533.99 567.09,-534.54"/>
</g>
<!-- APEX -->
<g id="node8" class="node">
<title>APEX</title>
<polygon fill="#cc00ff" stroke="black" stroke-width="5" points="516.5,-432 228.5,-432 228.5,-144 516.5,-144 516.5,-432"/>
<polyline fill="none" stroke="black" stroke-width="5" points="240.5,-432 228.5,-420 "/>
<polyline fill="none" stroke="black" stroke-width="5" points="228.5,-156 240.5,-144 "/>
<polyline fill="none" stroke="black" stroke-width="5" points="504.5,-144 516.5,-156 "/>
<polyline fill="none" stroke="black" stroke-width="5" points="516.5,-420 504.5,-432 "/>
<text text-anchor="middle" x="372.5" y="-309.2" font-family="Courier New" font-size="11.00" fill="white">AUTONOMOUS SYSTEM DESIGN</text>
<text text-anchor="middle" x="372.5" y="-297.2" font-family="Courier New" font-size="11.00" fill="white">Swarm Intelligence Generation</text>
<text text-anchor="middle" x="372.5" y="-285.2" font-family="Courier New" font-size="11.00" fill="white">Agent Ecosystem Synthesis</text>
<text text-anchor="middle" x="372.5" y="-273.2" font-family="Courier New" font-size="11.00" fill="white">Top 0.01%</text>
<text text-anchor="middle" x="372.5" y="-261.2" font-family="Courier New" font-size="11.00" fill="white">★ PEAK CAPABILITY ★</text>
</g>
<!-- S1&#45;&gt;APEX -->
<g id="edge13" class="edge">
<title>S1&#45;&gt;APEX</title>
<path fill="none" stroke="#cc00ff" stroke-width="3" d="M189.52,-467.64C198.52,-458.85 209.21,-448.42 220.82,-437.08"/>
<polygon fill="#cc00ff" stroke="#cc00ff" stroke-width="3" points="223.46,-439.4 228.17,-429.91 218.57,-434.4 223.46,-439.4"/>
</g>
<!-- S2&#45;&gt;APEX -->
<g id="edge14" class="edge">
<title>S2&#45;&gt;APEX</title>
<path fill="none" stroke="#cc00ff" stroke-width="3" d="M372.5,-467.64C372.5,-460.17 372.5,-451.51 372.5,-442.12"/>
<polygon fill="#cc00ff" stroke="#cc00ff" stroke-width="3" points="376,-442.09 372.5,-432.09 369,-442.09 376,-442.09"/>
</g>
<!-- S3&#45;&gt;APEX -->
<g id="edge15" class="edge">
<title>S3&#45;&gt;APEX</title>
<path fill="none" stroke="#cc00ff" stroke-width="3" d="M540.74,-467.64C533.03,-459.46 523.99,-449.86 514.17,-439.43"/>
<polygon fill="#cc00ff" stroke="#cc00ff" stroke-width="3" points="516.66,-436.97 507.25,-432.09 511.56,-441.77 516.66,-436.97"/>
</g>
<!-- I1 -->
<g id="node9" class="node">
<title>I1</title>
<polygon fill="#ffdd33" stroke="black" stroke-width="2" points="532,-108 529,-112 508,-112 505,-108 387,-108 387,-72 532,-72 532,-108"/>
<text text-anchor="middle" x="459.5" y="-93.2" font-family="Courier New" font-size="11.00">Thread Manager</text>
<text text-anchor="middle" x="459.5" y="-81.2" font-family="Courier New" font-size="11.00">6+ Parallel Threads</text>
</g>
<!-- APEX&#45;&gt;I1 -->
<g id="edge16" class="edge">
<title>APEX&#45;&gt;I1</title>
<path fill="none" stroke="#ffcc00" stroke-width="2" stroke-dasharray="5,2" d="M436.07,-143.78C440.34,-134.16 444.28,-125.29 447.66,-117.67"/>
<polygon fill="#ffcc00" stroke="#ffcc00" stroke-width="2" points="450.91,-118.98 451.77,-108.42 444.51,-116.14 450.91,-118.98"/>
</g>
<!-- I2 -->
<g id="node10" class="node">
<title>I2</title>
<polygon fill="#ffdd33" stroke="black" stroke-width="2" points="715,-108 712,-112 691,-112 688,-108 550,-108 550,-72 715,-72 715,-108"/>
<text text-anchor="middle" x="632.5" y="-93.2" font-family="Courier New" font-size="11.00">External Memory Matrix</text>
<text text-anchor="middle" x="632.5" y="-81.2" font-family="Courier New" font-size="11.00">5+ Device Integration</text>
</g>
<!-- APEX&#45;&gt;I2 -->
<g id="edge17" class="edge">
<title>APEX&#45;&gt;I2</title>
<path fill="none" stroke="#ffcc00" stroke-width="2" stroke-dasharray="5,2" d="M516.57,-178.4C548.63,-154.22 579.54,-130.92 601.37,-114.47"/>
<polygon fill="#ffcc00" stroke="#ffcc00" stroke-width="2" points="603.68,-117.11 609.56,-108.29 599.47,-111.52 603.68,-117.11"/>
</g>
<!-- I3 -->
<g id="node11" class="node">
<title>I3</title>
<polygon fill="#ffdd33" stroke="black" stroke-width="2" points="185.5,-108 182.5,-112 161.5,-112 158.5,-108 47.5,-108 47.5,-72 185.5,-72 185.5,-108"/>
<text text-anchor="middle" x="116.5" y="-93.2" font-family="Courier New" font-size="11.00">Synthesis Layer</text>
<text text-anchor="middle" x="116.5" y="-81.2" font-family="Courier New" font-size="11.00">Tool Orchestration</text>
</g>
<!-- APEX&#45;&gt;I3 -->
<g id="edge18" class="edge">
<title>APEX&#45;&gt;I3</title>
<path fill="none" stroke="#ffcc00" stroke-width="2" stroke-dasharray="5,2" d="M228.41,-176.68C197.64,-153.12 168.12,-130.52 147.13,-114.45"/>
<polygon fill="#ffcc00" stroke="#ffcc00" stroke-width="2" points="149.03,-111.5 138.96,-108.2 144.78,-117.06 149.03,-111.5"/>
</g>
<!-- I4 -->
<g id="node12" class="node">
<title>I4</title>
<polygon fill="#ffdd33" stroke="black" stroke-width="2" points="369,-108 366,-112 345,-112 342,-108 204,-108 204,-72 369,-72 369,-108"/>
<text text-anchor="middle" x="286.5" y="-93.2" font-family="Courier New" font-size="11.00">Execution Mesh</text>
<text text-anchor="middle" x="286.5" y="-81.2" font-family="Courier New" font-size="11.00">Compute Infrastructure</text>
</g>
<!-- APEX&#45;&gt;I4 -->
<g id="edge19" class="edge">
<title>APEX&#45;&gt;I4</title>
<path fill="none" stroke="#ffcc00" stroke-width="2" stroke-dasharray="5,2" d="M309.66,-143.78C305.44,-134.16 301.54,-125.29 298.2,-117.67"/>
<polygon fill="#ffcc00" stroke="#ffcc00" stroke-width="2" points="301.37,-116.17 294.14,-108.42 294.95,-118.98 301.37,-116.17"/>
</g>
<!-- O1 -->
<g id="node13" class="node">
<title>O1</title>
<polygon fill="#00cc66" stroke="black" stroke-width="2" points="539,-36 394,-36 394,-32 390,-32 390,-28 394,-28 394,-8 390,-8 390,-4 394,-4 394,0 539,0 539,-36"/>
<polyline fill="none" stroke="black" stroke-width="2" points="394,-32 398,-32 398,-28 394,-28 "/>
<polyline fill="none" stroke="black" stroke-width="2" points="394,-8 398,-8 398,-4 394,-4 "/>
<text text-anchor="middle" x="466.5" y="-21.2" font-family="Courier New" font-size="11.00" fill="white">Multi&#45;Agent Systems</text>
<text text-anchor="middle" x="466.5" y="-9.2" font-family="Courier New" font-size="11.00" fill="white">Swarm Architecture</text>
</g>
<!-- I1&#45;&gt;O1 -->
<g id="edge20" class="edge">
<title>I1&#45;&gt;O1</title>
<path fill="none" stroke="#00ff00" stroke-width="2" d="M461.23,-71.7C462,-63.98 462.93,-54.71 463.79,-46.11"/>
<polygon fill="#00ff00" stroke="#00ff00" stroke-width="2" points="467.28,-46.4 464.79,-36.1 460.31,-45.71 467.28,-46.4"/>
</g>
<!-- O2 -->
<g id="node14" class="node">
<title>O2</title>
<polygon fill="#00cc66" stroke="black" stroke-width="2" points="749.5,-36 557.5,-36 557.5,-32 553.5,-32 553.5,-28 557.5,-28 557.5,-8 553.5,-8 553.5,-4 557.5,-4 557.5,0 749.5,0 749.5,-36"/>
<polyline fill="none" stroke="black" stroke-width="2" points="557.5,-32 561.5,-32 561.5,-28 557.5,-28 "/>
<polyline fill="none" stroke="black" stroke-width="2" points="557.5,-8 561.5,-8 561.5,-4 557.5,-4 "/>
<text text-anchor="middle" x="653.5" y="-21.2" font-family="Courier New" font-size="11.00" fill="white">Distributed Infrastructure</text>
<text text-anchor="middle" x="653.5" y="-9.2" font-family="Courier New" font-size="11.00" fill="white">Fault&#45;Tolerant Design</text>
</g>
<!-- I1&#45;&gt;O2 -->
<g id="edge21" class="edge">
<title>I1&#45;&gt;O2</title>
<path fill="none" stroke="#00ff00" stroke-width="2" d="M506.96,-71.88C534.07,-62.09 568.24,-49.77 596.76,-39.47"/>
<polygon fill="#00ff00" stroke="#00ff00" stroke-width="2" points="597.98,-42.75 606.2,-36.07 595.6,-36.17 597.98,-42.75"/>
</g>
<!-- O3 -->
<g id="node15" class="node">
<title>O3</title>
<polygon fill="#00cc66" stroke="black" stroke-width="2" points="165,-36 0,-36 0,-32 -4,-32 -4,-28 0,-28 0,-8 -4,-8 -4,-4 0,-4 0,0 165,0 165,-36"/>
<polyline fill="none" stroke="black" stroke-width="2" points="0,-32 4,-32 4,-28 0,-28 "/>
<polyline fill="none" stroke="black" stroke-width="2" points="0,-8 4,-8 4,-4 0,-4 "/>
<text text-anchor="middle" x="82.5" y="-21.2" font-family="Courier New" font-size="11.00" fill="white">Cybersecurity Strategy</text>
<text text-anchor="middle" x="82.5" y="-9.2" font-family="Courier New" font-size="11.00" fill="white">Advanced Red&#45;Team</text>
</g>
<!-- I1&#45;&gt;O3 -->
<g id="edge22" class="edge">
<title>I1&#45;&gt;O3</title>
<path fill="none" stroke="#00ff00" stroke-width="2" d="M386.64,-73.78C383.56,-73.17 380.5,-72.58 377.5,-72 290.59,-55.29 266.3,-52.5 175.18,-36.11"/>
<polygon fill="#00ff00" stroke="#00ff00" stroke-width="2" points="175.71,-32.65 165.25,-34.32 174.47,-39.54 175.71,-32.65"/>
</g>
<!-- O4 -->
<g id="node16" class="node">
<title>O4</title>
<polygon fill="#00cc66" stroke="black" stroke-width="2" points="375.5,-36 183.5,-36 183.5,-32 179.5,-32 179.5,-28 183.5,-28 183.5,-8 179.5,-8 179.5,-4 183.5,-4 183.5,0 375.5,0 375.5,-36"/>
<polyline fill="none" stroke="black" stroke-width="2" points="183.5,-32 187.5,-32 187.5,-28 183.5,-28 "/>
<polyline fill="none" stroke="black" stroke-width="2" points="183.5,-8 187.5,-8 187.5,-4 183.5,-4 "/>
<text text-anchor="middle" x="279.5" y="-21.2" font-family="Courier New" font-size="11.00" fill="white">Knowledge Graphs</text>
<text text-anchor="middle" x="279.5" y="-9.2" font-family="Courier New" font-size="11.00" fill="white">Obsidian as External Brain</text>
</g>
<!-- I1&#45;&gt;O4 -->
<g id="edge23" class="edge">
<title>I1&#45;&gt;O4</title>
<path fill="none" stroke="#00ff00" stroke-width="2" d="M415.47,-71.88C390.53,-62.18 359.16,-49.98 332.84,-39.74"/>
<polygon fill="#00ff00" stroke="#00ff00" stroke-width="2" points="333.98,-36.43 323.39,-36.07 331.44,-42.95 333.98,-36.43"/>
</g>
<!-- I2&#45;&gt;O1 -->
<g id="edge24" class="edge">
<title>I2&#45;&gt;O1</title>
<path fill="none" stroke="#00ff00" stroke-width="2" d="M591.89,-71.88C569.1,-62.26 540.47,-50.19 516.33,-40.01"/>
<polygon fill="#00ff00" stroke="#00ff00" stroke-width="2" points="517.55,-36.73 506.98,-36.07 514.83,-43.18 517.55,-36.73"/>
</g>
<!-- I2&#45;&gt;O2 -->
<g id="edge25" class="edge">
<title>I2&#45;&gt;O2</title>
<path fill="none" stroke="#00ff00" stroke-width="2" d="M637.69,-71.7C640.03,-63.9 642.85,-54.51 645.45,-45.83"/>
<polygon fill="#00ff00" stroke="#00ff00" stroke-width="2" points="648.85,-46.69 648.37,-36.1 642.14,-44.68 648.85,-46.69"/>
</g>
<!-- I2&#45;&gt;O3 -->
<g id="edge26" class="edge">
<title>I2&#45;&gt;O3</title>
<path fill="none" stroke="#00ff00" stroke-width="2" d="M549.8,-73.38C546.66,-72.89 543.56,-72.43 540.5,-72 381.98,-49.6 338.13,-58.48 175.57,-36.07"/>
<polygon fill="#00ff00" stroke="#00ff00" stroke-width="2" points="175.59,-32.54 165.2,-34.62 174.62,-39.47 175.59,-32.54"/>
</g>
<!-- I2&#45;&gt;O4 -->
<g id="edge27" class="edge">
<title>I2&#45;&gt;O4</title>
<path fill="none" stroke="#00ff00" stroke-width="2" d="M549.74,-72.59C497.56,-62.24 429.98,-48.84 375.45,-38.03"/>
<polygon fill="#00ff00" stroke="#00ff00" stroke-width="2" points="375.92,-34.55 365.43,-36.04 374.56,-41.42 375.92,-34.55"/>
</g>
<!-- I3&#45;&gt;O1 -->
<g id="edge28" class="edge">
<title>I3&#45;&gt;O1</title>
<path fill="none" stroke="#00ff00" stroke-width="2" d="M185.8,-73.79C188.74,-73.18 191.65,-72.58 194.5,-72 275.67,-55.47 298.56,-52.9 383.78,-36.12"/>
<polygon fill="#00ff00" stroke="#00ff00" stroke-width="2" points="384.5,-39.55 393.64,-34.17 383.15,-32.68 384.5,-39.55"/>
</g>
<!-- I3&#45;&gt;O2 -->
<g id="edge29" class="edge">
<title>I3&#45;&gt;O2</title>
<path fill="none" stroke="#00ff00" stroke-width="2" d="M185.75,-73.48C188.7,-72.96 191.63,-72.46 194.5,-72 347.04,-47.68 389.41,-56.13 547.27,-35.97"/>
<polygon fill="#00ff00" stroke="#00ff00" stroke-width="2" points="547.87,-39.42 557.34,-34.67 546.97,-32.48 547.87,-39.42"/>
</g>
<!-- I3&#45;&gt;O3 -->
<g id="edge30" class="edge">
<title>I3&#45;&gt;O3</title>
<path fill="none" stroke="#00ff00" stroke-width="2" d="M108.1,-71.7C104.23,-63.73 99.55,-54.1 95.26,-45.26"/>
<polygon fill="#00ff00" stroke="#00ff00" stroke-width="2" points="98.33,-43.57 90.81,-36.1 92.03,-46.63 98.33,-43.57"/>
</g>
<!-- I3&#45;&gt;O4 -->
<g id="edge31" class="edge">
<title>I3&#45;&gt;O4</title>
<path fill="none" stroke="#00ff00" stroke-width="2" d="M156.37,-71.88C178.66,-62.31 206.62,-50.3 230.26,-40.15"/>
<polygon fill="#00ff00" stroke="#00ff00" stroke-width="2" points="231.95,-43.23 239.76,-36.07 229.19,-36.8 231.95,-43.23"/>
</g>
<!-- I4&#45;&gt;O1 -->
<g id="edge32" class="edge">
<title>I4&#45;&gt;O1</title>
<path fill="none" stroke="#00ff00" stroke-width="2" d="M330.53,-71.88C355.47,-62.18 386.84,-49.98 413.16,-39.74"/>
<polygon fill="#00ff00" stroke="#00ff00" stroke-width="2" points="414.56,-42.95 422.61,-36.07 412.02,-36.43 414.56,-42.95"/>
</g>
<!-- I4&#45;&gt;O2 -->
<g id="edge33" class="edge">
<title>I4&#45;&gt;O2</title>
<path fill="none" stroke="#00ff00" stroke-width="2" d="M369.32,-73.2C424.18,-62.74 496.43,-48.96 554.34,-37.91"/>
<polygon fill="#00ff00" stroke="#00ff00" stroke-width="2" points="555.08,-41.34 564.25,-36.02 553.77,-34.46 555.08,-41.34"/>
</g>
<!-- I4&#45;&gt;O3 -->
<g id="edge34" class="edge">
<title>I4&#45;&gt;O3</title>
<path fill="none" stroke="#00ff00" stroke-width="2" d="M236.86,-71.97C208.23,-62.14 172.05,-49.73 141.92,-39.39"/>
<polygon fill="#00ff00" stroke="#00ff00" stroke-width="2" points="142.96,-36.05 132.37,-36.11 140.69,-42.67 142.96,-36.05"/>
</g>
<!-- I4&#45;&gt;O4 -->
<g id="edge35" class="edge">
<title>I4&#45;&gt;O4</title>
<path fill="none" stroke="#00ff00" stroke-width="2" d="M284.77,-71.7C284,-63.98 283.07,-54.71 282.21,-46.11"/>
<polygon fill="#00ff00" stroke="#00ff00" stroke-width="2" points="285.69,-45.71 281.21,-36.1 278.72,-46.4 285.69,-45.71"/>
</g>
<!-- STATS -->
<g id="node22" class="node">
<title>STATS</title>
<polygon fill="#1a1a1a" stroke="black" stroke-width="2" points="996.5,-908 776.5,-908 776.5,-840 1002.5,-840 1002.5,-902 996.5,-908"/>
<polyline fill="none" stroke="black" stroke-width="2" points="996.5,-908 996.5,-902 "/>
<polyline fill="none" stroke="black" stroke-width="2" points="1002.5,-902 996.5,-902 "/>
<text text-anchor="middle" x="889.5" y="-895.2" font-family="Courier New" font-size="11.00" fill="white">POPULATION DISTRIBUTION</text>
<text text-anchor="middle" x="889.5" y="-883.2" font-family="Courier New" font-size="11.00" fill="white">In 1000 people:</text>
<text text-anchor="middle" x="889.5" y="-871.2" font-family="Courier New" font-size="11.00" fill="white">990 (99%) &#45; Won&#39;t understand</text>
<text text-anchor="middle" x="889.5" y="-859.2" font-family="Courier New" font-size="11.00" fill="white">9 (0.9%) &#45; Partially understand</text>
<text text-anchor="middle" x="889.5" y="-847.2" font-family="Courier New" font-size="11.00" fill="white">1 (0.1%) &#45; Full comprehension</text>
</g>
<!-- STATS&#45;&gt;CORE -->
</g>
</svg>
