<?xml version="1.0" encoding="UTF-8" standalone="no"?>
<!DOCTYPE svg PUBLIC "-//W3C//DTD SVG 1.1//EN"
 "http://www.w3.org/Graphics/SVG/1.1/DTD/svg11.dtd">
<!-- Generated by graphviz version 2.43.0 (0)
 -->
<!-- Title: Polymath_Cognitive_Architecture Pages: 1 -->
<svg width="3827pt" height="1218pt"
 viewBox="0.00 0.00 3827.00 1218.31" xmlns="http://www.w3.org/2000/svg" xmlns:xlink="http://www.w3.org/1999/xlink">
<g id="graph0" class="graph" transform="scale(1 1) rotate(0) translate(4 1214.31)">
<title>Polymath_Cognitive_Architecture</title>
<polygon fill="#0d1117" stroke="transparent" points="-4,4 -4,-1214.31 3823,-1214.31 3823,4 -4,4"/>
<text text-anchor="middle" x="1909.5" y="-1193.51" font-family="Helvetica,sans-Serif" font-size="16.00" fill="white">POLYMATH COGNITIVE ARCHITECTURE</text>
<text text-anchor="middle" x="1909.5" y="-1175.51" font-family="Helvetica,sans-Serif" font-size="16.00" fill="white">A 0.1% Cognitive Pattern</text>
<text text-anchor="middle" x="1909.5" y="-1138.51" font-family="Helvetica,sans-Serif" font-size="16.00" fill="white">Built for: Invention | Synthesis | Multi&#45;threaded Cognition | Chaos→Architecture</text>
<g id="clust1" class="cluster">
<title>cluster_parallel</title>
<polygon fill="#1a0d1a" stroke="#ff3399" points="8,-447.84 8,-815.74 499,-815.74 499,-447.84 8,-447.84"/>
<text text-anchor="middle" x="253.5" y="-798.94" font-family="Helvetica,sans-Serif" font-size="16.00" fill="white">1. PARALLEL PROCESSING</text>
<text text-anchor="middle" x="253.5" y="-780.94" font-family="Helvetica,sans-Serif" font-size="16.00" fill="white">(vs Linear Sequential)</text>
</g>
<g id="clust2" class="cluster">
<title>cluster_multimodal</title>
<polygon fill="#0d1a1a" stroke="#00ccff" points="507,-315.51 507,-820.37 1427,-820.37 1427,-315.51 507,-315.51"/>
<text text-anchor="middle" x="967" y="-803.57" font-family="Helvetica,sans-Serif" font-size="16.00" fill="white">2. MULTI&#45;MODAL LEARNING</text>
<text text-anchor="middle" x="967" y="-785.57" font-family="Helvetica,sans-Serif" font-size="16.00" fill="white">(Quadrilateral Collapse)</text>
</g>
<g id="clust3" class="cluster">
<title>cluster_os</title>
<polygon fill="#0d1a0d" stroke="#00ff00" points="1435,-461.84 1435,-836.31 1822,-836.31 1822,-461.84 1435,-461.84"/>
<text text-anchor="middle" x="1628.5" y="-819.51" font-family="Helvetica,sans-Serif" font-size="16.00">3. ADHD + AUTISM OPERATING SYSTEM</text>
</g>
<g id="clust4" class="cluster">
<title>cluster_neuro</title>
<polygon fill="#1a0d00" stroke="#ff6600" points="2159,-709.74 2159,-1073.31 2981,-1073.31 2981,-709.74 2159,-709.74"/>
<text text-anchor="middle" x="2570" y="-1056.51" font-family="Helvetica,sans-Serif" font-size="16.00" fill="white">4. NEUROPLASTICITY TRAINING</text>
<text text-anchor="middle" x="2570" y="-1038.51" font-family="Helvetica,sans-Serif" font-size="16.00" fill="white">(High&#45;Bandwidth Self&#45;Training)</text>
</g>
<g id="clust5" class="cluster">
<title>cluster_learning</title>
<polygon fill="#1a0d1a" stroke="#9933ff" points="2989,-709.74 2989,-1059.31 3325,-1059.31 3325,-709.74 2989,-709.74"/>
<text text-anchor="middle" x="3157" y="-1042.51" font-family="Helvetica,sans-Serif" font-size="16.00" fill="white">5. NON&#45;TRADITIONAL LEARNING MODEL</text>
</g>
<g id="clust6" class="cluster">
<title>cluster_contradiction</title>
<polygon fill="#1a0d0d" stroke="#ff0066" points="1830,-132.25 1830,-820.37 2151,-820.37 2151,-132.25 1830,-132.25"/>
<text text-anchor="middle" x="1990.5" y="-803.57" font-family="Helvetica,sans-Serif" font-size="16.00" fill="white">6. CONTRADICTION → INSIGHT LOOPS</text>
<text text-anchor="middle" x="1990.5" y="-785.57" font-family="Helvetica,sans-Serif" font-size="16.00" fill="white">(Constraint&#45;Aware Reasoning)</text>
</g>
<g id="clust7" class="cluster">
<title>cluster_output</title>
<polygon fill="#1a1a1a" stroke="#ffffff" points="1472,-8 1472,-113.25 2293,-113.25 2293,-8 1472,-8"/>
<text text-anchor="middle" x="1882.5" y="-96.45" font-family="Helvetica,sans-Serif" font-size="16.00">OUTPUT DOMAINS</text>
<text text-anchor="middle" x="1882.5" y="-78.45" font-family="Helvetica,sans-Serif" font-size="16.00">(What This Architecture Builds)</text>
</g>
<!-- Polymath_Mind -->
<g id="node1" class="node">
<title>Polymath_Mind</title>
<ellipse fill="#ff0066" stroke="black" stroke-width="3" cx="1105" cy="-1003.31" rx="162" ry="54"/>
<text text-anchor="middle" x="1105" y="-1012.51" font-family="Helvetica,sans-Serif" font-size="11.00" fill="white">POLYMATH MIND</text>
<text text-anchor="middle" x="1105" y="-1000.51" font-family="Helvetica,sans-Serif" font-size="11.00" fill="white">0.1% Architecture</text>
<text text-anchor="middle" x="1105" y="-988.51" font-family="Helvetica,sans-Serif" font-size="11.00" fill="white">Parallel | Multi&#45;Modal | Constraint&#45;Driven</text>
</g>
<!-- Thread_01 -->
<g id="node2" class="node">
<title>Thread_01</title>
<ellipse fill="#ff6600" stroke="black" stroke-width="2" cx="316" cy="-745.74" rx="49.82" ry="18"/>
<text text-anchor="middle" x="316" y="-742.94" font-family="Helvetica,sans-Serif" font-size="11.00">Thread 1&#45;10</text>
</g>
<!-- Polymath_Mind&#45;&gt;Thread_01 -->
<g id="edge20" class="edge">
<title>Polymath_Mind&#45;&gt;Thread_01</title>
<path fill="none" stroke="#ff0066" stroke-width="2" d="M955.82,-981.97C770.29,-954.38 466.69,-901.06 374,-836.31 351.68,-820.72 335.87,-793.52 326.46,-773.17"/>
<polygon fill="#ff0066" stroke="#ff0066" stroke-width="2" points="329.57,-771.56 322.35,-763.81 323.16,-774.37 329.57,-771.56"/>
</g>
<!-- Thread_02 -->
<g id="node3" class="node">
<title>Thread_02</title>
<ellipse fill="#ff7700" stroke="black" stroke-width="2" cx="437" cy="-745.74" rx="53.54" ry="18"/>
<text text-anchor="middle" x="437" y="-742.94" font-family="Helvetica,sans-Serif" font-size="11.00">Thread 11&#45;20</text>
</g>
<!-- Polymath_Mind&#45;&gt;Thread_02 -->
<g id="edge21" class="edge">
<title>Polymath_Mind&#45;&gt;Thread_02</title>
<path fill="none" stroke="#ff0066" stroke-width="2" d="M949.43,-987.85C820.34,-969.54 636.88,-928.38 503,-836.31 479.51,-820.16 461.16,-792.85 449.84,-772.62"/>
<polygon fill="#ff0066" stroke="#ff0066" stroke-width="2" points="452.82,-770.77 445,-763.62 446.65,-774.09 452.82,-770.77"/>
</g>
<!-- Thread_03 -->
<g id="node4" class="node">
<title>Thread_03</title>
<ellipse fill="#ff8800" stroke="black" stroke-width="2" cx="70" cy="-745.74" rx="53.54" ry="18"/>
<text text-anchor="middle" x="70" y="-742.94" font-family="Helvetica,sans-Serif" font-size="11.00">Thread 21&#45;30</text>
</g>
<!-- Polymath_Mind&#45;&gt;Thread_03 -->
<g id="edge22" class="edge">
<title>Polymath_Mind&#45;&gt;Thread_03</title>
<path fill="none" stroke="#ff0066" stroke-width="2" d="M947.48,-990.28C707.64,-969.51 264.7,-920.84 132,-836.31 108.32,-821.23 91.25,-793.51 81.09,-772.89"/>
<polygon fill="#ff0066" stroke="#ff0066" stroke-width="2" points="84.2,-771.27 76.78,-763.7 77.86,-774.24 84.2,-771.27"/>
</g>
<!-- Thread_04 -->
<g id="node5" class="node">
<title>Thread_04</title>
<ellipse fill="#ff9900" stroke="black" stroke-width="2" cx="195" cy="-745.74" rx="53.54" ry="18"/>
<text text-anchor="middle" x="195" y="-742.94" font-family="Helvetica,sans-Serif" font-size="11.00">Thread 31&#45;40</text>
</g>
<!-- Polymath_Mind&#45;&gt;Thread_04 -->
<g id="edge23" class="edge">
<title>Polymath_Mind&#45;&gt;Thread_04</title>
<path fill="none" stroke="#ff0066" stroke-width="2" d="M951.05,-986.19C738.67,-961.62 369.28,-909.77 257,-836.31 233.64,-821.03 216.6,-793.59 206.37,-773.09"/>
<polygon fill="#ff0066" stroke="#ff0066" stroke-width="2" points="209.47,-771.48 202.02,-763.96 203.15,-774.49 209.47,-771.48"/>
</g>
<!-- Symbolic -->
<g id="node7" class="node">
<title>Symbolic</title>
<ellipse fill="#0066ff" stroke="black" stroke-width="2" cx="1332" cy="-745.74" rx="86.95" ry="22.76"/>
<text text-anchor="middle" x="1332" y="-748.94" font-family="Helvetica,sans-Serif" font-size="11.00" fill="white">SYMBOLIC</text>
<text text-anchor="middle" x="1332" y="-736.94" font-family="Helvetica,sans-Serif" font-size="11.00" fill="white">Math | Code | Logic</text>
</g>
<!-- Polymath_Mind&#45;&gt;Symbolic -->
<g id="edge24" class="edge">
<title>Polymath_Mind&#45;&gt;Symbolic</title>
<path fill="none" stroke="#ff0066" stroke-width="2" d="M1150.39,-951.21C1197.29,-898.41 1268.79,-817.91 1306.57,-775.38"/>
<polygon fill="#ff0066" stroke="#ff0066" stroke-width="2" points="1309.19,-777.69 1313.22,-767.89 1303.96,-773.04 1309.19,-777.69"/>
</g>
<!-- Spatial -->
<g id="node8" class="node">
<title>Spatial</title>
<ellipse fill="#0099ff" stroke="black" stroke-width="2" cx="614" cy="-745.74" rx="98.99" ry="22.76"/>
<text text-anchor="middle" x="614" y="-748.94" font-family="Helvetica,sans-Serif" font-size="11.00" fill="white">SPATIAL</text>
<text text-anchor="middle" x="614" y="-736.94" font-family="Helvetica,sans-Serif" font-size="11.00" fill="white">Diagrams | 3D | Visual</text>
</g>
<!-- Polymath_Mind&#45;&gt;Spatial -->
<g id="edge25" class="edge">
<title>Polymath_Mind&#45;&gt;Spatial</title>
<path fill="none" stroke="#ff0066" stroke-width="2" d="M994.03,-963.81C915.28,-934.23 808.61,-889.5 722,-836.31 693.29,-818.68 664.07,-793.95 643.28,-774.94"/>
<polygon fill="#ff0066" stroke="#ff0066" stroke-width="2" points="645.46,-772.19 635.74,-767.97 640.7,-777.33 645.46,-772.19"/>
</g>
<!-- Narrative -->
<g id="node9" class="node">
<title>Narrative</title>
<ellipse fill="#00ccff" stroke="black" stroke-width="2" cx="848" cy="-745.74" rx="116.85" ry="22.76"/>
<text text-anchor="middle" x="848" y="-748.94" font-family="Helvetica,sans-Serif" font-size="11.00">NARRATIVE</text>
<text text-anchor="middle" x="848" y="-736.94" font-family="Helvetica,sans-Serif" font-size="11.00">Story | Metaphor | Analogy</text>
</g>
<!-- Polymath_Mind&#45;&gt;Narrative -->
<g id="edge26" class="edge">
<title>Polymath_Mind&#45;&gt;Narrative</title>
<path fill="none" stroke="#ff0066" stroke-width="2" d="M1054.23,-951.82C1001.1,-898.99 919.57,-817.92 876.67,-775.26"/>
<polygon fill="#ff0066" stroke="#ff0066" stroke-width="2" points="878.93,-772.57 869.38,-768 874,-777.53 878.93,-772.57"/>
</g>
<!-- Kinesthetic -->
<g id="node10" class="node">
<title>Kinesthetic</title>
<ellipse fill="#00ffff" stroke="black" stroke-width="2" cx="1105" cy="-745.74" rx="122.16" ry="22.76"/>
<text text-anchor="middle" x="1105" y="-748.94" font-family="Helvetica,sans-Serif" font-size="11.00">KINESTHETIC</text>
<text text-anchor="middle" x="1105" y="-736.94" font-family="Helvetica,sans-Serif" font-size="11.00">Movement | Touch | Physical</text>
</g>
<!-- Polymath_Mind&#45;&gt;Kinesthetic -->
<g id="edge27" class="edge">
<title>Polymath_Mind&#45;&gt;Kinesthetic</title>
<path fill="none" stroke="#ff0066" stroke-width="2" d="M1105,-949.05C1105,-897.53 1105,-821.18 1105,-778.52"/>
<polygon fill="#ff0066" stroke="#ff0066" stroke-width="2" points="1108.5,-778.44 1105,-768.44 1101.5,-778.44 1108.5,-778.44"/>
</g>
<!-- ADHD -->
<g id="node12" class="node">
<title>ADHD</title>
<ellipse fill="#00cc00" stroke="black" stroke-width="2" cx="1728" cy="-745.74" rx="85.62" ry="56.64"/>
<text text-anchor="middle" x="1728" y="-772.94" font-family="Helvetica,sans-Serif" font-size="11.00">ADHD TRAITS</text>
<text text-anchor="middle" x="1728" y="-760.94" font-family="Helvetica,sans-Serif" font-size="11.00">Divergent Thinking</text>
<text text-anchor="middle" x="1728" y="-748.94" font-family="Helvetica,sans-Serif" font-size="11.00">Creativity</text>
<text text-anchor="middle" x="1728" y="-736.94" font-family="Helvetica,sans-Serif" font-size="11.00">Pattern Generation</text>
<text text-anchor="middle" x="1728" y="-724.94" font-family="Helvetica,sans-Serif" font-size="11.00">Dopamine Drive</text>
<text text-anchor="middle" x="1728" y="-712.94" font-family="Helvetica,sans-Serif" font-size="11.00">Chaos Comfort</text>
</g>
<!-- Polymath_Mind&#45;&gt;ADHD -->
<g id="edge28" class="edge">
<title>Polymath_Mind&#45;&gt;ADHD</title>
<path fill="none" stroke="#ff0066" stroke-width="2" d="M1245.88,-976.49C1356.84,-951.94 1512.52,-907.93 1634,-836.31 1649.73,-827.04 1664.92,-814.67 1678.33,-802.09"/>
<polygon fill="#ff0066" stroke="#ff0066" stroke-width="2" points="1680.81,-804.55 1685.59,-795.09 1675.96,-799.51 1680.81,-804.55"/>
</g>
<!-- Autism -->
<g id="node13" class="node">
<title>Autism</title>
<ellipse fill="#00ff00" stroke="black" stroke-width="2" cx="1534" cy="-745.74" rx="90.52" ry="56.64"/>
<text text-anchor="middle" x="1534" y="-772.94" font-family="Helvetica,sans-Serif" font-size="11.00">AUTISM TRAITS</text>
<text text-anchor="middle" x="1534" y="-760.94" font-family="Helvetica,sans-Serif" font-size="11.00">Pattern Recognition</text>
<text text-anchor="middle" x="1534" y="-748.94" font-family="Helvetica,sans-Serif" font-size="11.00">Hyperfocus</text>
<text text-anchor="middle" x="1534" y="-736.94" font-family="Helvetica,sans-Serif" font-size="11.00">System Building</text>
<text text-anchor="middle" x="1534" y="-724.94" font-family="Helvetica,sans-Serif" font-size="11.00">Rule Mapping</text>
<text text-anchor="middle" x="1534" y="-712.94" font-family="Helvetica,sans-Serif" font-size="11.00">Structure Obsession</text>
</g>
<!-- Polymath_Mind&#45;&gt;Autism -->
<g id="edge29" class="edge">
<title>Polymath_Mind&#45;&gt;Autism</title>
<path fill="none" stroke="#ff0066" stroke-width="2" d="M1202.98,-960.09C1269.6,-929.57 1358.47,-885.23 1431,-836.31 1446.75,-825.69 1462.73,-812.94 1477.26,-800.44"/>
<polygon fill="#ff0066" stroke="#ff0066" stroke-width="2" points="1479.94,-802.74 1485.17,-793.53 1475.34,-797.47 1479.94,-802.74"/>
</g>
<!-- Neural_Cluster -->
<g id="node20" class="node">
<title>Neural_Cluster</title>
<polygon fill="#ffaa00" stroke="black" stroke-width="3" points="2475,-773.74 2323,-773.74 2323,-717.74 2475,-717.74 2475,-773.74"/>
<text text-anchor="middle" x="2399" y="-760.94" font-family="Helvetica,sans-Serif" font-size="11.00">DISTRIBUTED</text>
<text text-anchor="middle" x="2399" y="-748.94" font-family="Helvetica,sans-Serif" font-size="11.00">COMPUTING CLUSTER</text>
<text text-anchor="middle" x="2399" y="-736.94" font-family="Helvetica,sans-Serif" font-size="11.00">Bilateral | Split&#45;Attention</text>
<text text-anchor="middle" x="2399" y="-724.94" font-family="Helvetica,sans-Serif" font-size="11.00">Whole&#45;Field Awareness</text>
</g>
<!-- Polymath_Mind&#45;&gt;Neural_Cluster -->
<g id="edge30" class="edge">
<title>Polymath_Mind&#45;&gt;Neural_Cluster</title>
<path fill="none" stroke="#ff0066" stroke-width="2" d="M1242.83,-974.91C1425.34,-939.59 1757.58,-878.65 2044,-844.31 2093.11,-838.43 2106.64,-846.71 2155,-836.31 2216,-823.19 2282.3,-798.11 2330.37,-777.82"/>
<polygon fill="#ff0066" stroke="#ff0066" stroke-width="2" points="2331.9,-780.97 2339.73,-773.83 2329.16,-774.53 2331.9,-780.97"/>
</g>
<!-- Polymath_Learn -->
<g id="node22" class="node">
<title>Polymath_Learn</title>
<polygon fill="#9933ff" stroke="black" stroke-width="3" points="3167,-773.74 2997,-773.74 2997,-717.74 3167,-717.74 3167,-773.74"/>
<text text-anchor="middle" x="3082" y="-760.94" font-family="Helvetica,sans-Serif" font-size="11.00" fill="white">Polymath Pattern</text>
<text text-anchor="middle" x="3082" y="-748.94" font-family="Helvetica,sans-Serif" font-size="11.00" fill="white">Experience → Compare</text>
<text text-anchor="middle" x="3082" y="-736.94" font-family="Helvetica,sans-Serif" font-size="11.00" fill="white">→ Pattern Match → Collapse</text>
<text text-anchor="middle" x="3082" y="-724.94" font-family="Helvetica,sans-Serif" font-size="11.00" fill="white">✅ NATURAL</text>
</g>
<!-- Polymath_Mind&#45;&gt;Polymath_Learn -->
<g id="edge31" class="edge">
<title>Polymath_Mind&#45;&gt;Polymath_Learn</title>
<path fill="none" stroke="#ff0066" stroke-width="2" d="M1253.34,-981.38C1456.42,-953.46 1832.58,-904.44 2155,-877.31 2247.01,-869.57 2899.86,-872.06 2985,-836.31 3012.61,-824.72 3037.31,-801.63 3054.87,-781.8"/>
<polygon fill="#ff0066" stroke="#ff0066" stroke-width="2" points="3057.61,-783.97 3061.48,-774.11 3052.3,-779.41 3057.61,-783.97"/>
</g>
<!-- Contradiction -->
<g id="node23" class="node">
<title>Contradiction</title>
<ellipse fill="#cc0044" stroke="black" stroke-width="2" cx="1924" cy="-745.74" rx="63.78" ry="22.76"/>
<text text-anchor="middle" x="1924" y="-748.94" font-family="Helvetica,sans-Serif" font-size="11.00" fill="white">Contradiction</text>
<text text-anchor="middle" x="1924" y="-736.94" font-family="Helvetica,sans-Serif" font-size="11.00" fill="white">Encountered</text>
</g>
<!-- Polymath_Mind&#45;&gt;Contradiction -->
<g id="edge32" class="edge">
<title>Polymath_Mind&#45;&gt;Contradiction</title>
<path fill="none" stroke="#ff0066" stroke-width="2" d="M1261.72,-989.47C1413.41,-971.83 1646.16,-930.71 1826,-836.31 1854.83,-821.18 1881.68,-795.48 1899.96,-775.48"/>
<polygon fill="#ff0066" stroke="#ff0066" stroke-width="2" points="1902.72,-777.64 1906.77,-767.85 1897.5,-772.98 1902.72,-777.64"/>
</g>
<!-- Pattern_Collision -->
<g id="node6" class="node">
<title>Pattern_Collision</title>
<polygon fill="#ffff00" stroke="black" stroke-width="2" points="316,-519.84 210,-487.84 316,-455.84 422,-487.84 316,-519.84"/>
<text text-anchor="middle" x="316" y="-491.04" font-family="Helvetica,sans-Serif" font-size="11.00">Pattern Collision</text>
<text text-anchor="middle" x="316" y="-479.04" font-family="Helvetica,sans-Serif" font-size="11.00">→ INSIGHT</text>
</g>
<!-- Thread_01&#45;&gt;Pattern_Collision -->
<g id="edge1" class="edge">
<title>Thread_01&#45;&gt;Pattern_Collision</title>
<path fill="none" stroke="#ff6600" stroke-width="2" d="M316,-727.56C316,-687.57 316,-587.39 316,-530.33"/>
<polygon fill="#ff6600" stroke="#ff6600" stroke-width="2" points="319.5,-530.2 316,-520.2 312.5,-530.2 319.5,-530.2"/>
</g>
<!-- Thread_02&#45;&gt;Pattern_Collision -->
<g id="edge2" class="edge">
<title>Thread_02&#45;&gt;Pattern_Collision</title>
<path fill="none" stroke="#ff7700" stroke-width="2" d="M428.87,-727.56C409.39,-686.35 359.67,-581.2 333.19,-525.21"/>
<polygon fill="#ff7700" stroke="#ff7700" stroke-width="2" points="336.28,-523.55 328.84,-516.01 329.95,-526.54 336.28,-523.55"/>
</g>
<!-- Thread_03&#45;&gt;Pattern_Collision -->
<g id="edge3" class="edge">
<title>Thread_03&#45;&gt;Pattern_Collision</title>
<path fill="none" stroke="#ff8800" stroke-width="2" d="M85.76,-728.35C125.97,-686.52 232.89,-575.29 285.67,-520.4"/>
<polygon fill="#ff8800" stroke="#ff8800" stroke-width="2" points="288.34,-522.67 292.74,-513.04 283.29,-517.82 288.34,-522.67"/>
</g>
<!-- Thread_04&#45;&gt;Pattern_Collision -->
<g id="edge4" class="edge">
<title>Thread_04&#45;&gt;Pattern_Collision</title>
<path fill="none" stroke="#ff9900" stroke-width="2" d="M203.13,-727.56C222.61,-686.35 272.33,-581.2 298.81,-525.21"/>
<polygon fill="#ff9900" stroke="#ff9900" stroke-width="2" points="302.05,-526.54 303.16,-516.01 295.72,-523.55 302.05,-526.54"/>
</g>
<!-- Invention -->
<g id="node27" class="node">
<title>Invention</title>
<ellipse fill="#ffcc00" stroke="black" stroke-width="2" cx="1521" cy="-38.63" rx="40.78" ry="18"/>
<text text-anchor="middle" x="1521" y="-35.83" font-family="Helvetica,sans-Serif" font-size="11.00">Invention</text>
</g>
<!-- Pattern_Collision&#45;&gt;Invention -->
<g id="edge33" class="edge">
<title>Pattern_Collision&#45;&gt;Invention</title>
<path fill="none" stroke="#ffff00" stroke-width="2" d="M336.24,-461.86C367.9,-424.45 432.8,-354.15 503,-315.51 843.28,-128.21 1318.6,-61.89 1471.53,-44.66"/>
<polygon fill="#ffff00" stroke="#ffff00" stroke-width="2" points="1472,-48.12 1481.56,-43.54 1471.23,-41.17 1472,-48.12"/>
</g>
<!-- Collapse -->
<g id="node11" class="node">
<title>Collapse</title>
<polygon fill="#ffff00" stroke="black" stroke-width="2" points="1277.58,-526.6 1145.74,-526.6 1105,-652.01 1064.26,-526.6 932.42,-526.6 1039.08,-449.09 998.34,-323.68 1105,-401.19 1211.66,-323.68 1170.92,-449.09 1277.58,-526.6"/>
<text text-anchor="middle" x="1105" y="-491.04" font-family="Helvetica,sans-Serif" font-size="11.00">COLLAPSE</text>
<text text-anchor="middle" x="1105" y="-479.04" font-family="Helvetica,sans-Serif" font-size="11.00">&#39;Now we understand&#39;</text>
</g>
<!-- Symbolic&#45;&gt;Collapse -->
<g id="edge5" class="edge">
<title>Symbolic&#45;&gt;Collapse</title>
<path fill="none" stroke="#0066ff" stroke-width="2" d="M1313.04,-723.37C1277.62,-683.44 1200.52,-596.52 1150.78,-540.45"/>
<polygon fill="#0066ff" stroke="#0066ff" stroke-width="2" points="1153.2,-537.91 1143.95,-532.75 1147.96,-542.55 1153.2,-537.91"/>
</g>
<!-- Spatial&#45;&gt;Collapse -->
<g id="edge6" class="edge">
<title>Spatial&#45;&gt;Collapse</title>
<path fill="none" stroke="#0099ff" stroke-width="2" d="M652.53,-724.66C732.05,-683.22 915.86,-587.42 1023.14,-531.51"/>
<polygon fill="#0099ff" stroke="#0099ff" stroke-width="2" points="1025.07,-534.45 1032.32,-526.72 1021.83,-528.24 1025.07,-534.45"/>
</g>
<!-- Narrative&#45;&gt;Collapse -->
<g id="edge7" class="edge">
<title>Narrative&#45;&gt;Collapse</title>
<path fill="none" stroke="#00ccff" stroke-width="2" d="M869.47,-723.37C910.57,-682.44 1001.27,-592.13 1057.35,-536.29"/>
<polygon fill="#00ccff" stroke="#00ccff" stroke-width="2" points="1060.07,-538.52 1064.69,-528.98 1055.13,-533.56 1060.07,-538.52"/>
</g>
<!-- Kinesthetic&#45;&gt;Collapse -->
<g id="edge8" class="edge">
<title>Kinesthetic&#45;&gt;Collapse</title>
<path fill="none" stroke="#00ffff" stroke-width="2" d="M1105,-722.93C1105,-707.9 1105,-686.35 1105,-662.35"/>
<polygon fill="#00ffff" stroke="#00ffff" stroke-width="2" points="1108.5,-662.3 1105,-652.3 1101.5,-662.3 1108.5,-662.3"/>
</g>
<!-- System_Design -->
<g id="node28" class="node">
<title>System_Design</title>
<ellipse fill="#ffdd00" stroke="black" stroke-width="2" cx="1639" cy="-38.63" rx="59.56" ry="18"/>
<text text-anchor="middle" x="1639" y="-35.83" font-family="Helvetica,sans-Serif" font-size="11.00">System Design</text>
</g>
<!-- Collapse&#45;&gt;System_Design -->
<g id="edge34" class="edge">
<title>Collapse&#45;&gt;System_Design</title>
<path fill="none" stroke="#ffff00" stroke-width="2" d="M1175.58,-435.47C1269.25,-366.14 1438.28,-237 1571,-113.25 1587.64,-97.74 1605.03,-78.86 1618.05,-64.1"/>
<polygon fill="#ffff00" stroke="#ffff00" stroke-width="2" points="1620.86,-66.21 1624.81,-56.38 1615.59,-61.6 1620.86,-66.21"/>
</g>
<!-- Synthesis -->
<g id="node14" class="node">
<title>Synthesis</title>
<polygon fill="#66ff00" stroke="black" stroke-width="3" points="1813.5,-505.84 1614.5,-505.84 1614.5,-469.84 1813.5,-469.84 1813.5,-505.84"/>
<text text-anchor="middle" x="1714" y="-491.04" font-family="Helvetica,sans-Serif" font-size="11.00">SYNTHESIS</text>
<text text-anchor="middle" x="1714" y="-479.04" font-family="Helvetica,sans-Serif" font-size="11.00">Chaos Engine ↔ Structure Engine</text>
</g>
<!-- ADHD&#45;&gt;Synthesis -->
<g id="edge9" class="edge">
<title>ADHD&#45;&gt;Synthesis</title>
<path fill="none" stroke="#00cc00" stroke-width="2" d="M1724.94,-688.9C1722.02,-635.44 1717.73,-557.05 1715.49,-516.07"/>
<polygon fill="#00cc00" stroke="#00cc00" stroke-width="2" points="1718.98,-515.82 1714.94,-506.03 1711.99,-516.21 1718.98,-515.82"/>
</g>
<!-- Autism&#45;&gt;Synthesis -->
<g id="edge10" class="edge">
<title>Autism&#45;&gt;Synthesis</title>
<path fill="none" stroke="#00ff00" stroke-width="2" d="M1569.99,-693.57C1608.21,-639.24 1667.04,-555.6 1696.27,-514.05"/>
<polygon fill="#00ff00" stroke="#00ff00" stroke-width="2" points="1699.14,-516.05 1702.03,-505.85 1693.42,-512.02 1699.14,-516.05"/>
</g>
<!-- Architecture -->
<g id="node29" class="node">
<title>Architecture</title>
<ellipse fill="#ffee00" stroke="black" stroke-width="2" cx="1767" cy="-38.63" rx="50.52" ry="18"/>
<text text-anchor="middle" x="1767" y="-35.83" font-family="Helvetica,sans-Serif" font-size="11.00">Architecture</text>
</g>
<!-- Synthesis&#45;&gt;Architecture -->
<g id="edge35" class="edge">
<title>Synthesis&#45;&gt;Architecture</title>
<path fill="none" stroke="#66ff00" stroke-width="2" d="M1716.05,-469.59C1724.12,-401.46 1753.82,-150.86 1763.74,-67.1"/>
<polygon fill="#66ff00" stroke="#66ff00" stroke-width="2" points="1767.23,-67.42 1764.93,-57.07 1760.28,-66.59 1767.23,-67.42"/>
</g>
<!-- Dual_Hand -->
<g id="node15" class="node">
<title>Dual_Hand</title>
<ellipse fill="#ff4400" stroke="black" stroke-width="2" cx="2399" cy="-1003.31" rx="69.51" ry="18"/>
<text text-anchor="middle" x="2399" y="-1000.51" font-family="Helvetica,sans-Serif" font-size="11.00" fill="white">Dual&#45;Hand Writing</text>
</g>
<!-- Dual_Hand&#45;&gt;Neural_Cluster -->
<g id="edge11" class="edge">
<title>Dual_Hand&#45;&gt;Neural_Cluster</title>
<path fill="none" stroke="#ff4400" stroke-width="2" d="M2399,-985.15C2399,-944.25 2399,-840.28 2399,-784.11"/>
<polygon fill="#ff4400" stroke="#ff4400" stroke-width="2" points="2402.5,-783.87 2399,-773.87 2395.5,-783.87 2402.5,-783.87"/>
</g>
<!-- Juggling -->
<g id="node16" class="node">
<title>Juggling</title>
<ellipse fill="#ff5500" stroke="black" stroke-width="2" cx="2239" cy="-1003.31" rx="72.32" ry="18"/>
<text text-anchor="middle" x="2239" y="-1000.51" font-family="Helvetica,sans-Serif" font-size="11.00" fill="white">Juggling + Running</text>
</g>
<!-- Juggling&#45;&gt;Neural_Cluster -->
<g id="edge12" class="edge">
<title>Juggling&#45;&gt;Neural_Cluster</title>
<path fill="none" stroke="#ff5500" stroke-width="2" d="M2249.75,-985.15C2275.62,-943.82 2341.8,-838.11 2376.7,-782.37"/>
<polygon fill="#ff5500" stroke="#ff5500" stroke-width="2" points="2379.68,-784.21 2382.02,-773.87 2373.74,-780.49 2379.68,-784.21"/>
</g>
<!-- Knife_Flip -->
<g id="node17" class="node">
<title>Knife_Flip</title>
<ellipse fill="#ff6600" stroke="black" stroke-width="2" cx="2900" cy="-1003.31" rx="73.23" ry="18"/>
<text text-anchor="middle" x="2900" y="-1000.51" font-family="Helvetica,sans-Serif" font-size="11.00">Knife Flip + Writing</text>
</g>
<!-- Knife_Flip&#45;&gt;Neural_Cluster -->
<g id="edge13" class="edge">
<title>Knife_Flip&#45;&gt;Neural_Cluster</title>
<path fill="none" stroke="#ff6600" stroke-width="2" d="M2893.24,-985.04C2881.81,-958.06 2856.13,-906.07 2818,-877.31 2718.76,-802.47 2575.85,-769.99 2485.23,-756.28"/>
<polygon fill="#ff6600" stroke="#ff6600" stroke-width="2" points="2485.67,-752.81 2475.26,-754.81 2484.65,-759.73 2485.67,-752.81"/>
</g>
<!-- Handstand -->
<g id="node18" class="node">
<title>Handstand</title>
<ellipse fill="#ff7700" stroke="black" stroke-width="2" cx="2737" cy="-1003.31" rx="71.62" ry="18"/>
<text text-anchor="middle" x="2737" y="-1000.51" font-family="Helvetica,sans-Serif" font-size="11.00">Handstand Control</text>
</g>
<!-- Handstand&#45;&gt;Neural_Cluster -->
<g id="edge14" class="edge">
<title>Handstand&#45;&gt;Neural_Cluster</title>
<path fill="none" stroke="#ff7700" stroke-width="2" d="M2729.58,-985.34C2717.45,-959.25 2691.17,-908.98 2656,-877.31 2606.18,-832.46 2538.12,-798.8 2484.56,-776.89"/>
<polygon fill="#ff7700" stroke="#ff7700" stroke-width="2" points="2485.66,-773.56 2475.08,-773.07 2483.05,-780.06 2485.66,-773.56"/>
</g>
<!-- Breath_Hold -->
<g id="node19" class="node">
<title>Breath_Hold</title>
<ellipse fill="#ff8800" stroke="black" stroke-width="2" cx="2567" cy="-1003.31" rx="79.96" ry="18"/>
<text text-anchor="middle" x="2567" y="-1000.51" font-family="Helvetica,sans-Serif" font-size="11.00">Breath Hold + Stress</text>
</g>
<!-- Breath_Hold&#45;&gt;Neural_Cluster -->
<g id="edge15" class="edge">
<title>Breath_Hold&#45;&gt;Neural_Cluster</title>
<path fill="none" stroke="#ff8800" stroke-width="2" d="M2555.72,-985.15C2528.55,-943.82 2459.06,-838.11 2422.42,-782.37"/>
<polygon fill="#ff8800" stroke="#ff8800" stroke-width="2" points="2425.25,-780.31 2416.83,-773.87 2419.4,-784.15 2425.25,-780.31"/>
</g>
<!-- Creative_Synthesis -->
<g id="node30" class="node">
<title>Creative_Synthesis</title>
<ellipse fill="#ffff00" stroke="black" stroke-width="2" cx="2057" cy="-38.63" rx="72.32" ry="18"/>
<text text-anchor="middle" x="2057" y="-35.83" font-family="Helvetica,sans-Serif" font-size="11.00">Creative Synthesis</text>
</g>
<!-- Neural_Cluster&#45;&gt;Creative_Synthesis -->
<g id="edge36" class="edge">
<title>Neural_Cluster&#45;&gt;Creative_Synthesis</title>
<path fill="none" stroke="#ffaa00" stroke-width="2" d="M2322.87,-726.59C2291.07,-715.45 2256.2,-698 2233,-671.18 2177.95,-607.54 2182,-572.99 2182,-488.84 2182,-488.84 2182,-488.84 2182,-171.25 2182,-150.17 2168.73,-148.25 2155,-132.25 2133.05,-106.7 2104.81,-80.61 2084.29,-62.65"/>
<polygon fill="#ffaa00" stroke="#ffaa00" stroke-width="2" points="2086.41,-59.86 2076.56,-55.96 2081.83,-65.15 2086.41,-59.86"/>
</g>
<!-- Factory_School -->
<g id="node21" class="node">
<title>Factory_School</title>
<polygon fill="#660099" stroke="black" stroke-width="2" stroke-dasharray="5,2" points="3173,-1025.31 2997,-1025.31 2997,-981.31 3173,-981.31 3173,-1025.31"/>
<text text-anchor="middle" x="3085" y="-1012.51" font-family="Helvetica,sans-Serif" font-size="11.00" fill="white">Factory School</text>
<text text-anchor="middle" x="3085" y="-1000.51" font-family="Helvetica,sans-Serif" font-size="11.00" fill="white">Memorize → Recall → Repeat</text>
<text text-anchor="middle" x="3085" y="-988.51" font-family="Helvetica,sans-Serif" font-size="11.00" fill="white">❌ INCOMPATIBLE</text>
</g>
<!-- Factory_School&#45;&gt;Polymath_Learn -->
<g id="edge16" class="edge">
<title>Factory_School&#45;&gt;Polymath_Learn</title>
<path fill="none" stroke="#ff0066" stroke-width="2" stroke-dasharray="5,2" d="M3084.75,-980.96C3084.24,-937.55 3083.08,-838.5 3082.44,-784.15"/>
<polygon fill="#ff0066" stroke="#ff0066" stroke-width="2" points="3085.94,-783.86 3082.32,-773.9 3078.94,-783.94 3085.94,-783.86"/>
<text text-anchor="middle" x="3125.5" y="-848.11" font-family="Times,serif" font-size="14.00">MISMATCH</text>
</g>
<!-- Novel_Problem_Solving -->
<g id="node31" class="node">
<title>Novel_Problem_Solving</title>
<ellipse fill="#eeee00" stroke="black" stroke-width="2" cx="2216" cy="-38.63" rx="68.68" ry="22.76"/>
<text text-anchor="middle" x="2216" y="-41.83" font-family="Helvetica,sans-Serif" font-size="11.00">Novel Problem</text>
<text text-anchor="middle" x="2216" y="-29.83" font-family="Helvetica,sans-Serif" font-size="11.00">Solving</text>
</g>
<!-- Polymath_Learn&#45;&gt;Novel_Problem_Solving -->
<g id="edge37" class="edge">
<title>Polymath_Learn&#45;&gt;Novel_Problem_Solving</title>
<path fill="none" stroke="#9933ff" stroke-width="2" d="M3040.22,-717.69C3023.53,-707.72 3003.83,-696.97 2985,-689.18 2670.99,-559.13 2247,-828.71 2247,-488.84 2247,-488.84 2247,-488.84 2247,-171.25 2247,-136.23 2236.47,-97.32 2227.69,-70.95"/>
<polygon fill="#9933ff" stroke="#9933ff" stroke-width="2" points="2230.88,-69.47 2224.31,-61.15 2224.26,-71.75 2230.88,-69.47"/>
</g>
<!-- Question -->
<g id="node24" class="node">
<title>Question</title>
<ellipse fill="#ff0066" stroke="black" stroke-width="2" cx="1936" cy="-487.84" rx="55.31" ry="31.23"/>
<text text-anchor="middle" x="1936" y="-497.04" font-family="Helvetica,sans-Serif" font-size="11.00" fill="white">Why?</text>
<text text-anchor="middle" x="1936" y="-485.04" font-family="Helvetica,sans-Serif" font-size="11.00" fill="white">Investigate</text>
<text text-anchor="middle" x="1936" y="-473.04" font-family="Helvetica,sans-Serif" font-size="11.00" fill="white">Constraint</text>
</g>
<!-- Contradiction&#45;&gt;Question -->
<g id="edge17" class="edge">
<title>Contradiction&#45;&gt;Question</title>
<path fill="none" stroke="#cc0044" stroke-width="2" d="M1925.02,-722.93C1927.04,-680.01 1931.54,-584.02 1934.11,-529.22"/>
<polygon fill="#cc0044" stroke="#cc0044" stroke-width="2" points="1937.61,-529.32 1934.58,-519.16 1930.61,-528.99 1937.61,-529.32"/>
</g>
<!-- Frontier -->
<g id="node25" class="node">
<title>Frontier</title>
<ellipse fill="#ff3399" stroke="black" stroke-width="2" cx="1942" cy="-263.88" rx="61.54" ry="22.76"/>
<text text-anchor="middle" x="1942" y="-267.08" font-family="Helvetica,sans-Serif" font-size="11.00" fill="white">Constraint IS</text>
<text text-anchor="middle" x="1942" y="-255.08" font-family="Helvetica,sans-Serif" font-size="11.00" fill="white">The Frontier</text>
</g>
<!-- Question&#45;&gt;Frontier -->
<g id="edge18" class="edge">
<title>Question&#45;&gt;Frontier</title>
<path fill="none" stroke="#ff0066" stroke-width="2" d="M1936.82,-456.45C1937.95,-414.52 1939.99,-339.32 1941.14,-296.68"/>
<polygon fill="#ff0066" stroke="#ff0066" stroke-width="2" points="1944.64,-296.67 1941.41,-286.58 1937.64,-296.48 1944.64,-296.67"/>
</g>
<!-- Breakthrough -->
<g id="node26" class="node">
<title>Breakthrough</title>
<polygon fill="#ffff00" stroke="black" stroke-width="2" points="1946,-204.25 1838,-172.25 1946,-140.25 2054,-172.25 1946,-204.25"/>
<text text-anchor="middle" x="1946" y="-175.45" font-family="Helvetica,sans-Serif" font-size="11.00">BREAKTHROUGH</text>
<text text-anchor="middle" x="1946" y="-163.45" font-family="Helvetica,sans-Serif" font-size="11.00">Insight</text>
</g>
<!-- Frontier&#45;&gt;Breakthrough -->
<g id="edge19" class="edge">
<title>Frontier&#45;&gt;Breakthrough</title>
<path fill="none" stroke="#ff3399" stroke-width="2" d="M1942.97,-241.19C1943.34,-232.97 1943.77,-223.32 1944.19,-213.92"/>
<polygon fill="#ff3399" stroke="#ff3399" stroke-width="2" points="1947.68,-214.04 1944.63,-203.9 1940.69,-213.73 1947.68,-214.04"/>
</g>
<!-- Cross_Domain -->
<g id="node32" class="node">
<title>Cross_Domain</title>
<ellipse fill="#dddd00" stroke="black" stroke-width="2" cx="1901" cy="-38.63" rx="65.52" ry="22.76"/>
<text text-anchor="middle" x="1901" y="-41.83" font-family="Helvetica,sans-Serif" font-size="11.00">Cross&#45;Domain</text>
<text text-anchor="middle" x="1901" y="-29.83" font-family="Helvetica,sans-Serif" font-size="11.00">Integration</text>
</g>
<!-- Breakthrough&#45;&gt;Cross_Domain -->
<g id="edge38" class="edge">
<title>Breakthrough&#45;&gt;Cross_Domain</title>
<path fill="none" stroke="#ffff00" stroke-width="2" d="M1936.35,-143.02C1929.09,-121.79 1919.15,-92.73 1911.66,-70.82"/>
<polygon fill="#ffff00" stroke="#ffff00" stroke-width="2" points="1914.96,-69.64 1908.41,-61.31 1908.34,-71.9 1914.96,-69.64"/>
</g>
<!-- Characteristics -->
<g id="node33" class="node">
<title>Characteristics</title>
<polygon fill="#1a1a1a" stroke="black" stroke-width="2" points="3579,-1129.31 3333,-1129.31 3333,-877.31 3585,-877.31 3585,-1123.31 3579,-1129.31"/>
<polyline fill="none" stroke="black" stroke-width="2" points="3579,-1129.31 3579,-1123.31 "/>
<polyline fill="none" stroke="black" stroke-width="2" points="3585,-1123.31 3579,-1123.31 "/>
<text text-anchor="middle" x="3459" y="-1073.51" font-family="Helvetica,sans-Serif" font-size="11.00" fill="#00ff00">CHARACTERISTICS</text>
<text text-anchor="middle" x="3459" y="-1048.51" font-family="Helvetica,sans-Serif" font-size="11.00" fill="#00ff00">✅ 20 windows open (normal)</text>
<text text-anchor="middle" x="3459" y="-1036.51" font-family="Helvetica,sans-Serif" font-size="11.00" fill="#00ff00">✅ Parallel threads (natural)</text>
<text text-anchor="middle" x="3459" y="-1024.51" font-family="Helvetica,sans-Serif" font-size="11.00" fill="#00ff00">✅ Juggling + running (easy)</text>
<text text-anchor="middle" x="3459" y="-1012.51" font-family="Helvetica,sans-Serif" font-size="11.00" fill="#00ff00">✅ Chaos → Structure (automatic)</text>
<text text-anchor="middle" x="3459" y="-1000.51" font-family="Helvetica,sans-Serif" font-size="11.00" fill="#00ff00">✅ Multi&#45;modal required (essential)</text>
<text text-anchor="middle" x="3459" y="-988.51" font-family="Helvetica,sans-Serif" font-size="11.00" fill="#00ff00">✅ Contradictions as beacons (instinctive)</text>
<text text-anchor="middle" x="3459" y="-963.51" font-family="Helvetica,sans-Serif" font-size="11.00" fill="#00ff00">❌ Single&#45;task jobs (suffocating)</text>
<text text-anchor="middle" x="3459" y="-951.51" font-family="Helvetica,sans-Serif" font-size="11.00" fill="#00ff00">❌ Pure memorization (incompatible)</text>
<text text-anchor="middle" x="3459" y="-939.51" font-family="Helvetica,sans-Serif" font-size="11.00" fill="#00ff00">❌ Linear processing (unnatural)</text>
<text text-anchor="middle" x="3459" y="-927.51" font-family="Helvetica,sans-Serif" font-size="11.00" fill="#00ff00">❌ Rote repetition (painful)</text>
</g>
<!-- Classification -->
<g id="node34" class="node">
<title>Classification</title>
<polygon fill="#1a1a1a" stroke="black" stroke-width="2" points="3813,-1111.31 3603,-1111.31 3603,-895.31 3819,-895.31 3819,-1105.31 3813,-1111.31"/>
<polyline fill="none" stroke="black" stroke-width="2" points="3813,-1111.31 3813,-1105.31 "/>
<polyline fill="none" stroke="black" stroke-width="2" points="3819,-1105.31 3813,-1105.31 "/>
<text text-anchor="middle" x="3711" y="-1068.01" font-family="Helvetica,sans-Serif" font-size="11.00" fill="#ff0066">CLASSIFICATION</text>
<text text-anchor="middle" x="3711" y="-1043.01" font-family="Helvetica,sans-Serif" font-size="11.00" fill="#ff0066">🧠 Polymath&#45;Pattern Cognitive Type</text>
<text text-anchor="middle" x="3711" y="-1031.01" font-family="Helvetica,sans-Serif" font-size="11.00" fill="#ff0066">🔬 0.1% Prevalence</text>
<text text-anchor="middle" x="3711" y="-1019.01" font-family="Helvetica,sans-Serif" font-size="11.00" fill="#ff0066">⚡ High&#45;Bandwidth Processor</text>
<text text-anchor="middle" x="3711" y="-1007.01" font-family="Helvetica,sans-Serif" font-size="11.00" fill="#ff0066">🎯 Optimized for Synthesis</text>
<text text-anchor="middle" x="3711" y="-995.01" font-family="Helvetica,sans-Serif" font-size="11.00" fill="#ff0066">🌟 Built for Complexity</text>
<text text-anchor="middle" x="3711" y="-970.01" font-family="Helvetica,sans-Serif" font-size="11.00" fill="#ff0066">NOT broken | NOT too much</text>
<text text-anchor="middle" x="3711" y="-958.01" font-family="Helvetica,sans-Serif" font-size="11.00" fill="#ff0066">NOT abnormal | NOT pretending</text>
<text text-anchor="middle" x="3711" y="-933.01" font-family="Helvetica,sans-Serif" font-size="11.00" fill="#ff0066">DIFFERENT, not deficient</text>
</g>
</g>
</svg>
